<svg xmlns="http://www.w3.org/2000/svg" viewBox="0 0 468.06 427.9"><defs><style>.cls-1{fill:#f5f5f5;}.cls-2{fill:#e0e0e0;}.cls-3{fill:#ebebeb;}.cls-4{fill:#fafafa;}.cls-5{fill:#ffbe9d;}.cls-6{fill:#eb996e;}.cls-7{fill:#263238;}.cls-8{fill:#455a64;}.cls-9{fill:#6aa9ff;}.cls-10{opacity:0.3;}.cls-11{opacity:0.6;}.cls-12{fill:#fff;}.cls-13{opacity:0.4;}</style></defs><g id="Layer_2" data-name="Layer 2"><g id="Layer_1-2" data-name="Layer 1"><g id="freepik--background-complete--inject-8"><path class="cls-1" d="M388.79,228.83s-4.81,3.63-4.81,8.44v24.6h35.87v-25.7s-.5-6.31-4.72-7.34Z"/><path class="cls-2" d="M386.7,260.53a68.24,68.24,0,0,1-.52-7.56,6,6,0,0,1,4.2-5.57c1.89-.52,3.87.17,5.8.49a15.33,15.33,0,0,0,9.28-1.38c2.43-1.21,4.64-3.09,7.33-3.33,1.76-.17,3.8.66,4.29,2.36A5.81,5.81,0,0,1,417,248c-.57,3.8.17,8.51.17,12.15-10,.47-20.45.13-30.5.35"/><polyline class="cls-2" points="381.71 265.34 387.11 261.87 419.85 261.87 425.1 265.34 381.71 265.34"/><path class="cls-1" d="M380.7,185.33V222h44.4v43.39H381.71v10.41h74.86V185.33a7.81,7.81,0,0,0-7.8-7.79H388.49a7.79,7.79,0,0,0-7.79,7.79Z"/><path class="cls-2" d="M456.57,186.17c0,.17-17,.32-37.94.32s-37.93-.15-37.93-.32,17-.32,37.93-.32S456.57,186,456.57,186.17Z"/><path class="cls-2" d="M435.51,275.75c-.18,0-.32-21.93-.32-49s.14-49,.32-49,.32,21.93.32,49S435.69,275.75,435.51,275.75Z"/><path class="cls-2" d="M376.68,250l-.45-11.09a15,15,0,0,1,2.41-9c1.43-2.09,3.54-4,6.54-4h30v2.93h-29.4s-5.29.55-6,7.8a72.82,72.82,0,0,0,0,13.37Z"/><rect class="cls-2" x="395.39" y="405.12" width="11.94" height="21.53"/><rect class="cls-2" x="448.16" y="405.12" width="11.94" height="21.53"/><rect class="cls-2" x="369.15" y="276.05" width="98.91" height="129.07"/><rect class="cls-1" x="351.03" y="276.05" width="96.34" height="129.07"/><rect class="cls-1" x="359.54" y="405.12" width="11.94" height="21.53"/><rect class="cls-1" x="428.21" y="405.12" width="11.94" height="21.53"/><path class="cls-2" d="M439.7,390.38v-8.55c0-5.49,0-13.44-.07-23.31l.13.13-82.67.06h0l.2-.19v31.86l-.19-.19,59.23.09,17.22.05h.09l-17.18.06-59.36.08h-.19V358.32h.2l82.67.06h.14v.14c0,9.91-.06,17.88-.07,23.39v7.92A.9.9,0,0,1,439.7,390.38Z"/><path class="cls-2" d="M400.86,374.45a1.78,1.78,0,0,0-.15-.6,2.51,2.51,0,0,0-.92-1.28,2.38,2.38,0,0,0-2.22-.3,2.33,2.33,0,1,0,1.68,4.35,2.86,2.86,0,0,0,.54-.3,2.47,2.47,0,0,0,.92-1.28c.11-.37.11-.6.15-.59a1.09,1.09,0,0,1,0,.62,2.41,2.41,0,0,1-.89,1.47,2.64,2.64,0,0,1-2.51.42,2.67,2.67,0,0,1,0-5,2.64,2.64,0,0,1,2.51.42,2.49,2.49,0,0,1,.89,1.47A1.22,1.22,0,0,1,400.86,374.45Z"/><path class="cls-2" d="M439.7,352.22v-8.54c0-5.5,0-13.44-.07-23.32l.13.14-82.67.06h0l.2-.2v31.86l-.19-.19,59.23.09,17.22.05h.09l-17.18.05-59.36.09h-.19V320.17h.2l82.67.06h.14v.13c0,9.91-.06,17.89-.07,23.4v7.92A.81.81,0,0,1,439.7,352.22Z"/><path class="cls-2" d="M400.86,336.29a1.75,1.75,0,0,0-.15-.59,2.51,2.51,0,0,0-.92-1.28,2.38,2.38,0,0,0-2.22-.31,2.33,2.33,0,0,0,0,4.36,2.38,2.38,0,0,0,2.22-.3,2.5,2.5,0,0,0,.92-1.29c.11-.37.11-.59.15-.59a1.12,1.12,0,0,1,0,.63,2.49,2.49,0,0,1-.89,1.47,2.64,2.64,0,0,1-2.51.42,2.67,2.67,0,0,1,0-5,2.64,2.64,0,0,1,2.51.42,2.46,2.46,0,0,1,.89,1.46A1,1,0,0,1,400.86,336.29Z"/><path class="cls-2" d="M439.7,314.59v-8.54c0-5.5,0-13.44-.07-23.32l.13.14-82.67.06h0l.2-.2v31.86l-.19-.19,59.23.09,17.22.05H416.46l-59.36.09h-.19v-32.1h.2l82.67.06h.14v.13c0,9.91-.06,17.89-.07,23.4V314A.86.86,0,0,1,439.7,314.59Z"/><path class="cls-2" d="M400.86,298.65a1.75,1.75,0,0,0-.15-.59,2.51,2.51,0,0,0-.92-1.28,2.35,2.35,0,0,0-2.22-.3,2.32,2.32,0,0,0,0,4.35,2.38,2.38,0,0,0,2.22-.3,2.5,2.5,0,0,0,.92-1.29c.11-.37.11-.59.15-.59a1.12,1.12,0,0,1,0,.63,2.49,2.49,0,0,1-.89,1.47,2.64,2.64,0,0,1-2.51.42,2.67,2.67,0,0,1,0-5,2.64,2.64,0,0,1,2.51.42,2.46,2.46,0,0,1,.89,1.46A1,1,0,0,1,400.86,298.65Z"/><path class="cls-2" d="M448.89,275.74c0,.2-18,.36-40.26.36s-40.25-.16-40.25-.36,18-.35,40.25-.35S448.89,275.59,448.89,275.74Z"/><rect class="cls-3" x="13.78" y="368.9" width="75.18" height="5.83"/><rect class="cls-2" x="68.31" y="368.9" width="20.64" height="5.83"/><path class="cls-1" d="M4.23,374.74V401H.11v2.86H4.23v17.58h77v-16h-5.7V402h5.7v-5.22h2.53v-2.38h-3V374.74Z"/><polygon class="cls-2" points="60.77 374.81 60.77 421.14 81.21 421.14 81.21 405.15 75.51 405.15 75.51 401.95 81.21 401.95 81.21 396.73 83.74 396.73 83.74 394.06 80.73 394.06 80.73 374.73 60.77 374.81"/><path class="cls-2" d="M62.22,403.48c0,.16-13.93.29-31.1.29S0,403.64,0,403.48s13.93-.29,31.12-.29S62.22,403.32,62.22,403.48Z"/><path class="cls-2" d="M62.22,400.81c0,.16-13.93.29-31.1.29S0,401,0,400.81s13.93-.29,31.12-.29S62.22,400.65,62.22,400.81Z"/><path class="cls-2" d="M66.22,393.59c0,.16-13.93.29-31.11.29S4,393.79,4,393.59s13.93-.29,31.11-.29S66.22,393.47,66.22,393.59Z"/><path class="cls-2" d="M66.6,413.2c0,.16-13.93.29-31.1.29s-31.1-.13-31.1-.29,13.93-.29,31.12-.29S66.6,413,66.6,413.2Z"/><path class="cls-1" d="M11.85,322.2v26.27H7.73v2.85h4.12V368.9h77v-16h-5.7v-3.49h5.7v-5.22H91.4v-2.37h-3V322.2Z"/><polygon class="cls-2" points="68.38 322.28 68.38 368.61 88.82 368.61 88.82 352.61 83.12 352.61 83.12 349.42 88.82 349.53 88.82 344.3 91.41 344.3 91.36 341.6 88.35 341.53 88.35 322.2 68.38 322.28"/><path class="cls-2" d="M69.84,350.94c0,.16-13.93.3-31.11.3s-31.11-.14-31.11-.3,13.93-.29,31.11-.29S69.84,350.78,69.84,350.94Z"/><path class="cls-2" d="M69.84,348.28c0,.16-13.93.29-31.11.29s-31.11-.13-31.11-.29,13.93-.3,31.11-.3S69.84,348.12,69.84,348.28Z"/><path class="cls-2" d="M73.83,341.09c0,.17-13.92.3-31.1.3s-31.12-.13-31.12-.3,13.93-.29,31.12-.29S73.83,340.93,73.83,341.09Z"/><path class="cls-2" d="M74.22,360.66c0,.16-13.93.29-31.11.29S12,360.82,12,360.66s13.93-.29,31.11-.29S74.22,360.5,74.22,360.66Z"/><rect class="cls-3" x="8.74" y="421.17" width="75.18" height="5.83"/><rect class="cls-2" x="63.27" y="421.17" width="20.64" height="5.83"/><path class="cls-1" d="M33.59,202.38v24H29.82V229h3.77v16.08H104v-14.6H98.79v-3.19H104V222.5h2.32v-2.18h-2.76V202.38Z"/><polygon class="cls-2" points="85.31 202.45 85.31 244.84 104.01 244.84 104.01 230.2 98.79 230.2 98.79 227.28 104.01 227.38 104.01 222.6 106.37 222.6 106.33 220.13 103.57 220.06 103.57 202.38 85.31 202.45"/><path class="cls-2" d="M86.64,228.67c0,.15-12.74.27-28.46.27s-28.46-.12-28.46-.27,12.74-.26,28.46-.26S86.64,228.53,86.64,228.67Z"/><path class="cls-2" d="M86.64,226.23c0,.15-12.74.27-28.46.27s-28.46-.12-28.46-.27S42.46,226,58.18,226,86.64,226.08,86.64,226.23Z"/><path class="cls-2" d="M90.3,219.66c0,.15-12.75.27-28.46.27s-28.44-.12-28.44-.27,12.74-.26,28.47-.26S90.3,219.51,90.3,219.66Z"/><path class="cls-2" d="M90.65,237.59c0,.15-12.75.27-28.46.27s-28.46-.12-28.46-.27,12.74-.26,28.46-.26S90.65,237.42,90.65,237.59Z"/><rect class="cls-4" x="148.26" y="46.56" width="102.04" height="91.29"/><path class="cls-2" d="M250.3,137.86v-6.59c0-4.28,0-10.55-.06-18.53,0-16-.07-38.74-.12-66.18l.23.23h-102l.27-.28v91.3l-.24-.24,73.81.12,20.81.06h.1l-20.76.07-74,.12h-.24V46.29H250.62v.3c-.05,27.5-.09,50.34-.12,66.33,0,8,0,14.2-.06,18.48v4.84A6.85,6.85,0,0,1,250.3,137.86Z"/><path class="cls-2" d="M187.4,62.78c0,.16-5.37.28-12,.28s-12-.12-12-.28,5.37-.27,12-.27S187.4,62.59,187.4,62.78Z"/><path class="cls-2" d="M230.63,69.64c0,.15-14.76.27-33,.27s-33-.12-33-.27,14.76-.27,33-.27S230.63,69.49,230.63,69.64Z"/><rect class="cls-2" x="163.57" y="81.25" width="4.3" height="4.3"/><rect class="cls-2" x="174.15" y="81.25" width="4.3" height="4.3"/><rect class="cls-2" x="184.93" y="81.06" width="4.3" height="4.3"/><rect class="cls-2" x="195.32" y="81.25" width="4.3" height="4.3"/><rect class="cls-2" x="205.9" y="81.25" width="4.3" height="4.3"/><rect class="cls-2" x="216.48" y="81.25" width="4.3" height="4.3"/><rect class="cls-3" x="227.07" y="81.25" width="4.3" height="4.3"/><rect class="cls-3" x="163.57" y="90.39" width="4.3" height="4.3"/><rect class="cls-2" x="174.15" y="90.39" width="4.3" height="4.3"/><rect class="cls-3" x="184.74" y="90.39" width="4.3" height="4.3"/><rect class="cls-2" x="195.32" y="90.39" width="4.3" height="4.3"/><rect class="cls-2" x="205.9" y="90.39" width="4.3" height="4.3"/><rect class="cls-2" x="216.68" y="90.2" width="4.3" height="4.3"/><rect class="cls-2" x="227.07" y="90.39" width="4.3" height="4.3"/><rect class="cls-2" x="163.57" y="99.53" width="4.3" height="4.3"/><rect class="cls-2" x="174.35" y="99.33" width="4.3" height="4.3"/><rect class="cls-2" x="184.74" y="99.53" width="4.3" height="4.3"/><rect class="cls-3" x="195.32" y="99.53" width="4.3" height="4.3"/><rect class="cls-2" x="205.9" y="99.53" width="4.3" height="4.3"/><rect class="cls-2" x="216.48" y="99.53" width="4.3" height="4.3"/><rect class="cls-2" x="227.07" y="99.53" width="4.3" height="4.3"/><rect class="cls-2" x="163.57" y="108.67" width="4.3" height="4.3"/><rect class="cls-2" x="174.15" y="108.67" width="4.3" height="4.3"/><rect class="cls-2" x="184.74" y="108.67" width="4.3" height="4.3"/><rect class="cls-2" x="195.51" y="108.47" width="4.3" height="4.3"/><rect class="cls-2" x="205.9" y="108.67" width="4.3" height="4.3"/><rect class="cls-3" x="216.48" y="108.67" width="4.3" height="4.3"/><rect class="cls-2" x="227.07" y="108.67" width="4.3" height="4.3"/><rect class="cls-2" x="163.57" y="117.81" width="4.3" height="4.3"/><rect class="cls-3" x="174.15" y="117.81" width="4.3" height="4.3"/><rect class="cls-2" x="184.74" y="117.81" width="4.3" height="4.3"/><rect class="cls-2" x="195.32" y="117.81" width="4.3" height="4.3"/><rect class="cls-2" x="205.9" y="117.81" width="4.3" height="4.3"/><rect class="cls-2" x="216.68" y="117.61" width="4.3" height="4.3"/><rect class="cls-2" x="227.07" y="117.81" width="4.3" height="4.3"/><rect class="cls-3" x="386.98" y="35.73" width="17.97" height="30.96"/><rect class="cls-3" x="336.86" y="28.54" width="14.19" height="38.65"/><path class="cls-4" d="M336.7,31.33a120.78,120.78,0,0,1,14.49,0,60.32,60.32,0,0,1-7.24.22A60.49,60.49,0,0,1,336.7,31.33Z"/><path class="cls-4" d="M337.49,33.16a111.83,111.83,0,0,1,13.7,0A108,108,0,0,1,337.49,33.16Z"/><path class="cls-4" d="M343.55,59.59c-.11,0-.21-5.12-.21-11.44s.1-11.43.21-11.43.22,5.12.22,11.43S343.67,59.59,343.55,59.59Z"/><path class="cls-4" d="M336.87,63.11a111,111,0,0,1,13.89,0A115,115,0,0,1,336.87,63.11Z"/><path class="cls-4" d="M336.87,64.76a120.81,120.81,0,0,1,14.24,0A116.65,116.65,0,0,1,336.87,64.76Z"/><rect class="cls-2" x="351.05" y="24.36" width="11.4" height="42.83"/><path class="cls-4" d="M351,44a11.35,11.35,0,0,1,1.77,1.22l4.11,3.12L361,51.5a10.81,10.81,0,0,1,1.65,1.37,10.35,10.35,0,0,1-1.82-1.12c-1.1-.75-2.58-1.81-4.19-3s-3-2.37-4-3.22A11,11,0,0,1,351,44Z"/><path class="cls-4" d="M350.92,37.32A64.74,64.74,0,0,1,356.76,42a67.32,67.32,0,0,1,5.55,5,63.06,63.06,0,0,1-5.84-4.72A67.32,67.32,0,0,1,350.92,37.32Z"/><rect class="cls-3" x="301.52" y="26.42" width="5.45" height="40.8"/><path class="cls-4" d="M301.74,32a13.18,13.18,0,0,0,5.11,0,6.35,6.35,0,0,0-2.56-.26A6.28,6.28,0,0,0,301.74,32Z"/><ellipse class="cls-4" cx="304.18" cy="31.09" rx="2.55" ry="0.26"/><path class="cls-4" d="M301.74,64.07a13.18,13.18,0,0,0,5.11,0,6.35,6.35,0,0,0-2.56-.26A6.28,6.28,0,0,0,301.74,64.07Z"/><path class="cls-4" d="M301.63,63.18a13.18,13.18,0,0,0,5.11,0,6.72,6.72,0,0,0-2.56-.26A6.65,6.65,0,0,0,301.63,63.18Z"/><path class="cls-4" d="M304.4,57.85a103.89,103.89,0,0,0,.26-10.44A103.89,103.89,0,0,0,304.4,37c-.14,0-.25,4.68-.25,10.44S304.26,57.85,304.4,57.85Z"/><rect class="cls-2" x="325.95" y="26.16" width="10.9" height="40.8"/><path class="cls-4" d="M333.78,67.48a1.53,1.53,0,0,0,.12-.22c.07-.15.19-.38.32-.68a12.62,12.62,0,0,0,.79-2.76,7.25,7.25,0,0,0-.64-4.49,6,6,0,0,0-2-2.14,4.59,4.59,0,0,0-3.14-.74,3.44,3.44,0,0,0-1.63.75,2.15,2.15,0,0,0-.78,1.72,2.46,2.46,0,0,0,.93,1.73,3.38,3.38,0,0,0,1.86.79,5,5,0,0,0,3.87-1.4,6.23,6.23,0,0,0,1.91-3.93,10.5,10.5,0,0,0-.52-4.52,8.45,8.45,0,0,0-2.67-4,4.42,4.42,0,0,0-2.36-.92,3,3,0,0,0-2.45.87,2,2,0,0,0-.56,1.27,2.35,2.35,0,0,0,.38,1.34,3.51,3.51,0,0,0,2.2,1.5,5.13,5.13,0,0,0,4.8-1.61,8,8,0,0,0,1.87-4.59,11.51,11.51,0,0,0-.47-4.77,6.58,6.58,0,0,0-2.81-3.62,4.82,4.82,0,0,0-4.33-.47,2.26,2.26,0,0,0-1.41,1.66,2.66,2.66,0,0,0,.49,2.06,3.41,3.41,0,0,0,3.68,1,6.35,6.35,0,0,0,2.89-2.06,9.27,9.27,0,0,0,2.18-5.59,9,9,0,0,0-1-4.44,8.83,8.83,0,0,0-1.71-2.31,6.68,6.68,0,0,0-.57-.49,1.1,1.1,0,0,0-.21-.14,10.39,10.39,0,0,1,2.31,3,8.86,8.86,0,0,1,.9,4.33A9,9,0,0,1,333.89,39a6,6,0,0,1-2.74,1.91,3,3,0,0,1-3.22-.85,2.19,2.19,0,0,1-.4-1.72A1.82,1.82,0,0,1,328.69,37a4.35,4.35,0,0,1,3.9.45,6,6,0,0,1,2.6,3.37,10.79,10.79,0,0,1,.43,4.55,7.5,7.5,0,0,1-1.75,4.31,4.6,4.6,0,0,1-4.31,1.45,3.05,3.05,0,0,1-1.88-1.27,1.57,1.57,0,0,1,.13-2,2.56,2.56,0,0,1,2-.72,4,4,0,0,1,2.08.83,7.88,7.88,0,0,1,2.51,3.75,9.86,9.86,0,0,1,.55,4.34,5.71,5.71,0,0,1-1.75,3.65A4.55,4.55,0,0,1,329.69,61a2.59,2.59,0,0,1-2.44-2.12,1.74,1.74,0,0,1,.64-1.41,2.93,2.93,0,0,1,1.43-.68,4.12,4.12,0,0,1,2.9.66,5.75,5.75,0,0,1,1.86,2,7.13,7.13,0,0,1,.69,4.33,13,13,0,0,1-.69,2.75C333.9,67.16,333.76,67.47,333.78,67.48Z"/><rect class="cls-4" x="306.87" y="29.81" width="18.92" height="37.16"/><path class="cls-2" d="M307.53,36a79.83,79.83,0,0,0,9.15.26,80,80,0,0,0,9.16-.26,84.84,84.84,0,0,0-9.16-.25A84.65,84.65,0,0,0,307.53,36Z"/><path class="cls-2" d="M307.29,38.81a79.51,79.51,0,0,0,9,.26,79.51,79.51,0,0,0,9-.26,81.91,81.91,0,0,0-9-.26A81.91,81.91,0,0,0,307.29,38.81Z"/><path class="cls-2" d="M306.68,62.78a88.94,88.94,0,0,0,9.52.25,88.94,88.94,0,0,0,9.52-.25,86.41,86.41,0,0,0-9.52-.26A86.41,86.41,0,0,0,306.68,62.78Z"/><path class="cls-2" d="M306.94,59.47a84.34,84.34,0,0,0,9.27.25,84.34,84.34,0,0,0,9.27-.25,81.94,81.94,0,0,0-9.27-.26A81.94,81.94,0,0,0,306.94,59.47Z"/><rect class="cls-3" x="362.44" y="25.9" width="10.9" height="40.8"/><path class="cls-4" d="M370.27,67.22a2.2,2.2,0,0,0,.13-.22c.08-.15.18-.38.31-.68a12.7,12.7,0,0,0,.79-2.77,7.25,7.25,0,0,0-.64-4.49,6.16,6.16,0,0,0-1.93-2.13,4.59,4.59,0,0,0-3.14-.74,3.44,3.44,0,0,0-1.63.75,2.15,2.15,0,0,0-.78,1.72,2.47,2.47,0,0,0,.94,1.73,3.35,3.35,0,0,0,1.85.79A5,5,0,0,0,370,59.77,6.24,6.24,0,0,0,372,55.85a10.67,10.67,0,0,0-.57-4.55,8.45,8.45,0,0,0-2.67-4,4.42,4.42,0,0,0-2.36-.92,3.09,3.09,0,0,0-2.45.86,2,2,0,0,0-.51,1.35,2.35,2.35,0,0,0,.38,1.34,3.51,3.51,0,0,0,2.2,1.5,5.16,5.16,0,0,0,4.8-1.61,8,8,0,0,0,1.87-4.6,11.14,11.14,0,0,0-.47-4.76,6.58,6.58,0,0,0-2.81-3.62,4.85,4.85,0,0,0-4.33-.46,2.26,2.26,0,0,0-1.41,1.67,2.6,2.6,0,0,0,.49,2,3.41,3.41,0,0,0,3.68,1A6.35,6.35,0,0,0,370.69,39a9.22,9.22,0,0,0,2.18-5.6,9,9,0,0,0-2.77-6.8,5.27,5.27,0,0,0-.57-.49.77.77,0,0,0-.21-.14,10.39,10.39,0,0,1,2.31,3,8.86,8.86,0,0,1,.9,4.33,9,9,0,0,1-2.13,5.44,6,6,0,0,1-2.74,1.92,3,3,0,0,1-3.22-.85,2.19,2.19,0,0,1-.4-1.72,1.82,1.82,0,0,1,1.16-1.33,4.35,4.35,0,0,1,3.9.44,6.13,6.13,0,0,1,2.6,3.38,10.79,10.79,0,0,1,.43,4.55,7.5,7.5,0,0,1-1.75,4.3,4.61,4.61,0,0,1-4.3,1.46,3,3,0,0,1-1.91-1.29,1.56,1.56,0,0,1,.12-2,2.59,2.59,0,0,1,2-.71,3.87,3.87,0,0,1,2.08.82,8,8,0,0,1,2.52,3.74,10,10,0,0,1,.56,4.34,5.75,5.75,0,0,1-1.76,3.64,4.51,4.51,0,0,1-3.51,1.32,2.59,2.59,0,0,1-2.44-2.12,1.76,1.76,0,0,1,.64-1.42,3,3,0,0,1,1.43-.67,4.14,4.14,0,0,1,2.9.66,5.75,5.75,0,0,1,1.86,2,7.13,7.13,0,0,1,.69,4.33,13,13,0,0,1-.69,2.75C370.4,66.9,370.25,67.21,370.27,67.22Z"/><rect class="cls-2" x="286.37" y="23.84" width="15.15" height="42.86"/><rect class="cls-2" x="373.34" y="28.54" width="14.17" height="38.16"/><path class="cls-4" d="M387.86,47.59a11.49,11.49,0,0,0,2.25,1.6A7.87,7.87,0,0,0,393,50a7.19,7.19,0,0,0,3.54-.61c1.2-.51,2.29-1.17,3.4-1.55a5.35,5.35,0,0,1,3.09-.29,3.37,3.37,0,0,1,1.79,1.06,1.39,1.39,0,0,1,.35.68,3.47,3.47,0,0,0-.48-.57,3.41,3.41,0,0,0-1.73-.9,5.27,5.27,0,0,0-2.88.36c-1.06.39-2.13,1-3.37,1.57a7.61,7.61,0,0,1-3.74.62,7.76,7.76,0,0,1-3-.92,6.51,6.51,0,0,1-1.65-1.26A2,2,0,0,1,387.86,47.59Z"/><path class="cls-4" d="M387.54,51.35a12.25,12.25,0,0,0,2.25,1.6,7.87,7.87,0,0,0,2.85.79,7.31,7.31,0,0,0,3.54-.62c1.2-.51,2.29-1.16,3.4-1.55a5.43,5.43,0,0,1,3.09-.28,3.28,3.28,0,0,1,1.79,1.09c.32.39.37.67.35.68a6.23,6.23,0,0,0-.47-.57,3.32,3.32,0,0,0-1.74-.9,5.18,5.18,0,0,0-2.88.36c-1.06.38-2.13,1-3.37,1.57a7.49,7.49,0,0,1-3.74.61,7.58,7.58,0,0,1-3-.91A6.55,6.55,0,0,1,388,52,1.81,1.81,0,0,1,387.54,51.35Z"/><path class="cls-4" d="M387.78,39.12c0-.12,3.9-.21,8.71-.21s8.71.09,8.71.21q-4.35.33-8.71.22Q392.13,39.44,387.78,39.12Z"/><path class="cls-4" d="M381.4,34.69a2,2,0,0,0-1.24-.11,1.52,1.52,0,0,0-1,.8,1.24,1.24,0,0,0,.36,1.38,1.27,1.27,0,0,0,1.39.31,1.46,1.46,0,0,0,.76-1,2.09,2.09,0,0,0-.15-1.23.68.68,0,0,1,.27.27,1.59,1.59,0,0,1,.18,1,1.77,1.77,0,0,1-.88,1.29,1.62,1.62,0,0,1-1.87-.36,1.65,1.65,0,0,1-.43-1.85,1.76,1.76,0,0,1,1.25-.93,1.51,1.51,0,0,1,1,.14A1.75,1.75,0,0,1,381.4,34.69Z"/><path class="cls-4" d="M380.4,62.88c-.12,0-.22-5.35-.22-12s.1-11.94.22-11.94.22,5.34.22,11.94S380.56,62.88,380.4,62.88Z"/><rect class="cls-3" x="273.11" y="66.48" width="146.65" height="8.37"/><rect class="cls-2" x="406.95" y="66.48" width="12.8" height="8.37"/></g><g id="freepik--Character--inject-8"><path class="cls-5" d="M371.83,202.53c7-8.35,11.05-10.65,16.14-16.31,4.28-4.78,8.64-9.68,11.16-15.59s2.89-13.12-.66-18.47a164.18,164.18,0,0,0-19.62-2.75c-8.37-.46-12.26-.39-12.26-.39L362,163l8.38,3.42L353.17,182l-13.55,15.76,6.78,19.55,9.12.84Z"/><path class="cls-6" d="M383.82,153.52a20.2,20.2,0,0,1-2.22,2.31l-5.5,5.4c-2.16,2.11-4.14,4-5.62,5.31a17.56,17.56,0,0,1-2.47,2,21.93,21.93,0,0,1,2.22-2.3l5.5-5.41c2.16-2.11,4.14-4,5.62-5.3A18.37,18.37,0,0,1,383.82,153.52Z"/><path class="cls-6" d="M396.23,157.22c-.07.06-.47-.38-1.27-.85a5.85,5.85,0,0,0-3.42-.81A6,6,0,0,0,388.3,157c-.7.6-1,1.11-1.09,1.07s.15-.62.84-1.34a5.46,5.46,0,0,1,7.12-.62C396,156.64,396.27,157.19,396.23,157.22Z"/><path class="cls-7" d="M365.71,155.59a5.71,5.71,0,0,0,3.57-7.24c0-.08,0-.15-.08-.22a22.51,22.51,0,0,0-2.49-3.56,12.17,12.17,0,0,1-1.18-2.19l-1.38-4.24c-.93-3.56-1.7-7.16-4.47-9.41-2.51-2-6-2.34-8.88-3.79-2.11-1-3.88-2.69-5.95-3.82s-4.72-1.68-6.73-.44c-1.17.73-2,2-3.14,2.69-2.45,1.48-6,.38-8.19,2.15-1.82,1.45-2,4.14-3.3,6.06-1.42,2.08-2.29,4-4.55,5.16a6.4,6.4,0,0,0-3.6,5.82c0,2.22-.32,3.23-.38,5.45a13.68,13.68,0,0,1-1.54,4.74c-.64,1.48-1.85,7.26-.53,8.2L328,167.74c4.77,4.68,9.7,9.48,15.88,12l1.19,1.6c-1.42.18,15.09-1.47,17.85-11.4a9.88,9.88,0,0,1,1.72-3.84,18,18,0,0,0,2.61-3.41A6.12,6.12,0,0,0,365.71,155.59Z"/><path class="cls-7" d="M349.78,172.32a81.66,81.66,0,0,0,8.62-11.47,29,29,0,0,0,4.34-13.55c0-.72-.23-5.77-.92-6-.5-.15-.89,4.3-1.31,4.61a24.73,24.73,0,0,0-8,12.24,65.53,65.53,0,0,0-2.71,14.15"/><path class="cls-5" d="M320,203.12c6.93,2.68,20.9-9.13,20.9-9.13l16.31-38.4c4.93-11,2.66-23-8.43-27.59l-1-.36A21.46,21.46,0,0,0,321,139.21c-4.22,9.52-8.76,20.1-10.54,25.38-3.67,10.93,6.62,16.44,6.62,16.44s-.95,2.49-2.21,5.64c-2.81,7.06,2.29,15.56,5.14,16.45Z"/><path class="cls-6" d="M317,181a27.86,27.86,0,0,0,15.64.76s-6.22,6.71-16.74,1.93Z"/><path class="cls-7" d="M319.63,148.86c.13.27,1.61-.19,3.28.4s2.6,1.85,2.86,1.71.05-.49-.35-1.07a4.56,4.56,0,0,0-2.2-1.62,4.34,4.34,0,0,0-2.69-.07C319.87,148.43,319.57,148.73,319.63,148.86Z"/><path class="cls-7" d="M336.07,153.9c.12.27,1.6-.19,3.27.4s2.61,1.86,2.86,1.72.05-.5-.35-1.07a4.52,4.52,0,0,0-2.2-1.63,4.41,4.41,0,0,0-2.69-.06C336.31,153.47,336,153.78,336.07,153.9Z"/><path class="cls-7" d="M327.34,161.7a12.23,12.23,0,0,0-2.54-1.44c-.41-.19-.79-.42-.76-.73a2.33,2.33,0,0,1,.73-1.17l2.4-2.81c3.38-4,6-7.38,5.81-7.51s-3,3-6.4,7l-2.35,2.84a2.6,2.6,0,0,0-.81,1.6,1.12,1.12,0,0,0,.48.87,3,3,0,0,0,.69.36A11.16,11.16,0,0,0,327.34,161.7Z"/><path class="cls-7" d="M331.86,164.59c-.27-.11-.9,1.71-2.91,2.45s-3.87-.13-4,.12.31.5,1.12.81a4.74,4.74,0,0,0,3.28,0,4.13,4.13,0,0,0,2.32-2.1C332,165.14,332,164.59,331.86,164.59Z"/><path class="cls-7" d="M340.31,144.2c0,.51,1.75.88,3.63,1.8s3.28,2,3.68,1.7c.19-.16.06-.68-.43-1.35a6.94,6.94,0,0,0-5.57-2.69C340.8,143.72,340.31,144,340.31,144.2Z"/><path class="cls-7" d="M324.33,139.22c.16.49,1.45.49,2.84,1s2.47,1.15,2.88.85c.19-.15.14-.6-.25-1.14a4.1,4.1,0,0,0-2.09-1.42,4.17,4.17,0,0,0-2.52,0C324.56,138.66,324.26,139,324.33,139.22Z"/><path class="cls-5" d="M353.46,163.34c.22,0,8.26.41,5.42,7.77s-9.65,3-9.58,2.77S353.46,163.34,353.46,163.34Z"/><path class="cls-6" d="M352.63,172a2.16,2.16,0,0,0,.27.32,1.34,1.34,0,0,0,1,.39c.89,0,2-1,2.57-2.28a4.57,4.57,0,0,0,.34-2,1.58,1.58,0,0,0-.58-1.36.71.71,0,0,0-.89.06c-.18.17-.19.33-.23.33s-.11-.18.06-.47a.9.9,0,0,1,.47-.34,1,1,0,0,1,.78.08,2,2,0,0,1,.9,1.66,4.56,4.56,0,0,1-.35,2.22c-.62,1.47-1.91,2.56-3.09,2.46a1.48,1.48,0,0,1-1.1-.65C352.57,172.14,352.6,172,352.63,172Z"/><path class="cls-7" d="M330.51,128.94c-.93-1.12,4.15-3.56,7.59-3.72,5.2-.26,12.42,1.18,16,3.94,4.34,3.33,7.44,7.38,8.14,12.8a31.19,31.19,0,0,1-2.6,16,9.47,9.47,0,0,1-2.81,4.07c-1.67,1.22-4,1.46-4.84,3.73a3.3,3.3,0,0,1-1.65,1.94c-1.9.89-3-1.1-3.24-2.74-.47-3.51.71-7,1.87-10.36a23.18,23.18,0,0,1,3.23-6.79c.84-1.08,1.88-2,2.66-3.13a4.75,4.75,0,0,0,.93-3.87,6.24,6.24,0,0,0-.36-.84,8.21,8.21,0,0,0-7-4.45c-4.71-.17-12.63-.79-13.91-2.92a12.79,12.79,0,0,1-2-4.63Z"/><path class="cls-7" d="M354.14,128a17.28,17.28,0,0,0-12.66-4.23,9,9,0,0,0-6.35,3.11c-1.47,1.93-1.6,5,.15,6.65l.11.15c2.71,2.29,4.91,2.68,8.46,2.83,3,.14,6-.56,8.94-.41a16.05,16.05,0,0,1,8.83,3.2A26.17,26.17,0,0,0,354.14,128Z"/><path class="cls-8" d="M364.71,143.82a6.54,6.54,0,0,1-1.41,1.85,16.12,16.12,0,0,1-4.56,3.3,16.45,16.45,0,0,1-5.4,1.57,7,7,0,0,1-2.33,0,20.37,20.37,0,0,0,13.7-6.7Z"/><path class="cls-8" d="M367.19,146.22a2.5,2.5,0,0,1-.31.84,13.11,13.11,0,0,1-1.24,2.11,16.56,16.56,0,0,1-6.09,5.24,16.73,16.73,0,0,1-7.86,1.74,15.2,15.2,0,0,1-2.43-.28,2.89,2.89,0,0,1-.86-.28c0-.1,1.26.18,3.3.15a17.51,17.51,0,0,0,7.61-1.83,17.69,17.69,0,0,0,6-5C366.58,147.34,367.11,146.17,367.19,146.22Z"/><path class="cls-5" d="M270.11,227.59l-35.4-37-7.61,12,9.39,17.94s10.23,16.76,15.5,22.66,5.65,4.63,5.65,4.63Z"/><path class="cls-5" d="M221.63,179.89c-.12-.08-6.32-1-8.79-1.35a2.6,2.6,0,0,0-1.82.4l-3.72,2.47-3.05,6.47.91.61-.93,5.84a1.85,1.85,0,0,0,2.61.24,2.16,2.16,0,0,0,.39-.46,25.53,25.53,0,0,0,2.7-4.38l4-.07-.18.37-4.13,1.05-1.38,3.51,1.23,3.63,2.78,2.54,1.2,0,2.26,1.36s2.29-2,.35-4c0,0,1.87,1.84,2.9,1.12l8.4,3.82,6.61-6.38,1.79-5.08s-10.53-10.32-11.17-10.81A10.91,10.91,0,0,0,221.63,179.89Z"/><path class="cls-6" d="M216.1,198a8.34,8.34,0,0,1-.07-1.27,4,4,0,0,0-1.41-2.51l-.15-.12-.15-.11.05-.18a5.33,5.33,0,0,0,.11-2.83,10,10,0,0,1-.32-1.19,2.16,2.16,0,0,1,.66,1.09,4.88,4.88,0,0,1,.05,3.09l-.1-.29.17.13a3.8,3.8,0,0,1,1.45,2.89C216.4,197.59,216.15,198,216.1,198Z"/><path class="cls-6" d="M213.11,200.71a3.05,3.05,0,0,0-.16-4.39c-.22-.31-.46-.6-.69-.89l-.09-.11v-.14a2.42,2.42,0,0,0-.45-2.44c-.44-.5-.86-.65-.83-.72s.48,0,1.07.49a2.7,2.7,0,0,1,.69,2.85l-.05-.25q.36.42.72.9a5.09,5.09,0,0,1,.91,1.87,2.92,2.92,0,0,1-.1,1.73C213.8,200.59,213.11,200.77,213.11,200.71Z"/><path class="cls-6" d="M214.32,194c.08.12-.29.49-.82.82s-1,.51-1.09.38.29-.49.82-.82S214.24,193.92,214.32,194Z"/><path class="cls-6" d="M215.65,198.59c-.15,0-.37-.71-1-1.42s-1.25-1.08-1.2-1.22.93.06,1.61.89S215.79,198.59,215.65,198.59Z"/><path class="cls-6" d="M218.23,198.59c-.14-.07.68-1.92,1-4.37s0-4.44.14-4.46a8.63,8.63,0,0,1,.38,4.53A8.75,8.75,0,0,1,218.23,198.59Z"/><path class="cls-6" d="M209.68,184.28c.07,0,0,.39-.21.95a6.65,6.65,0,0,1-1.18,2.05,3.54,3.54,0,0,1-2.09,1.18c-.64.08-1-.11-1-.17s.38,0,.91-.19a4,4,0,0,0,1.79-1.17,11,11,0,0,0,1.23-1.85C209.4,184.59,209.62,184.25,209.68,184.28Z"/><path class="cls-6" d="M214.09,188.92c-.09-.11.12-.42.34-.79s.41-.69.56-.66.17.48-.11.94S214.17,189,214.09,188.92Z"/><path class="cls-8" d="M188.21,178.53l.1,15.15c0,5.09,20.5,4.92,20.24-.14,0-.3-.1-15.15-.1-15.15Z"/><path class="cls-8" d="M208,181.05a11.76,11.76,0,0,1,3.65,0,3.52,3.52,0,0,1,2.31,1.19,3.94,3.94,0,0,1,.55,2,7.73,7.73,0,0,1-.39,3.93,5,5,0,0,1-2.67,2.42,8.14,8.14,0,0,1-3.59.52V188.8a9.68,9.68,0,0,0,2.15-.13,3.34,3.34,0,0,0,1.88-1,4.59,4.59,0,0,0,.79-3.39,2.45,2.45,0,0,0-.38-1.34,2.15,2.15,0,0,0-1.76-.66,6.49,6.49,0,0,0-2.5.5"/><path class="cls-7" d="M200.94,147.64a.75.75,0,0,1-.43.18,1.41,1.41,0,0,1-1.2-.57,1.8,1.8,0,0,1-.41-.91,1.33,1.33,0,0,1,.37-1.14,2.25,2.25,0,0,1,2.74-.26,3.08,3.08,0,0,1,1.23,3.13,7.12,7.12,0,0,1-1.81,3.45,11.93,11.93,0,0,0-2.3,3.4,3.93,3.93,0,0,0,.76,4c1,1.13,2.34,1.88,3.4,3a3.88,3.88,0,0,1,1.07,2,3.34,3.34,0,0,1-.35,2.15,7.87,7.87,0,0,1-2.75,2.75,12,12,0,0,0-2.53,2.07,7.18,7.18,0,0,0-1.63,4.34,14.55,14.55,0,0,0,.11,1.75,1.76,1.76,0,0,1-.15-.44,5.8,5.8,0,0,1-.16-1.31,7.14,7.14,0,0,1,1.55-4.57,11.42,11.42,0,0,1,2.56-2.19,7.55,7.55,0,0,0,2.57-2.61,2.83,2.83,0,0,0,.29-1.85,3.44,3.44,0,0,0-1-1.74c-1-1-2.35-1.76-3.43-3a4.43,4.43,0,0,1-.85-4.49,12.42,12.42,0,0,1,2.43-3.53,6.75,6.75,0,0,0,1.74-3.21,2.68,2.68,0,0,0-1-2.75,2,2,0,0,0-2.34.14,1.29,1.29,0,0,0,0,1.72,1.3,1.3,0,0,0,1,.59C200.79,147.7,200.92,147.59,200.94,147.64Z"/><path class="cls-5" d="M209.4,182.38l8-.38,9.08,2.58,11.33,9.67s-8.65,6.42-11.45,3.62-6.07-9-6.07-9l-3.22-1.36S206.5,187.48,209.4,182.38Z"/><path class="cls-6" d="M232.6,189.79a2.83,2.83,0,0,1-.45-.32l-1.25-1-4.5-3.74h.07l-9.1-2.53h0l-8,.39.22-.13-.07.12a2.21,2.21,0,0,0,0,2.51,4.71,4.71,0,0,0,2.31,1.36,19.54,19.54,0,0,0,5.21.76h.05l3.21,1.38h.07v.07a65.12,65.12,0,0,0,4.07,6.76c.54.77,1,1.35,1.32,1.74a4.09,4.09,0,0,1,.49.61,4.07,4.07,0,0,1-.58-.52,20.93,20.93,0,0,1-1.43-1.69,53.83,53.83,0,0,1-4.25-6.71l.11.1-3.23-1.34H217a19.5,19.5,0,0,1-5.37-.75,5.3,5.3,0,0,1-2.56-1.52,2.25,2.25,0,0,1-.5-1.54,3.61,3.61,0,0,1,.48-1.53l.06-.14.07-.12h.23l8-.36h.08l9.06,2.63h0l4.41,3.87c.47.43.86.79,1.18,1.07A1.57,1.57,0,0,1,232.6,189.79Z"/><path class="cls-7" d="M208.4,194.17a5,5,0,0,1-.68.46,6.77,6.77,0,0,1-.85.43,10.12,10.12,0,0,1-1.18.49,20.62,20.62,0,0,1-7.26,1.17,22.58,22.58,0,0,1-7.24-1.25,15.37,15.37,0,0,1-2.05-.87c-.47-.24-.72-.39-.7-.43s1.09.42,2.86,1a26.16,26.16,0,0,0,7.14,1.08,23.28,23.28,0,0,0,7.13-1C207.3,194.65,208.32,194.09,208.4,194.17Z"/><path class="cls-7" d="M208.51,194a56.75,56.75,0,0,1-.29-7.82,56.86,56.86,0,0,1,.23-7.83,60.08,60.08,0,0,1,.29,7.82A62,62,0,0,1,208.51,194Z"/><path class="cls-7" d="M198.47,177.44a1.22,1.22,0,0,1-.17-.25,3.34,3.34,0,0,1-.26-.83,5,5,0,0,1,.6-3.11,11.68,11.68,0,0,1,3.17-3.47,10.71,10.71,0,0,0,3.59-4.19,3.89,3.89,0,0,0,.1-2.71,5.83,5.83,0,0,0-1.49-2.14c-1.23-1.18-2.55-2.21-3.12-3.5a3.25,3.25,0,0,1,.13-3.14,1.9,1.9,0,0,1,.63-.6c.18-.1.28-.13.29-.11a3.44,3.44,0,0,0-.75.82,3.1,3.1,0,0,0,0,2.87c.57,1.17,1.83,2.11,3.13,3.32a6.08,6.08,0,0,1,1.63,2.31,4.36,4.36,0,0,1-.09,3.06,10.77,10.77,0,0,1-3.73,4.38,12,12,0,0,0-3.15,3.27,5.09,5.09,0,0,0-.73,2.92A11.07,11.07,0,0,0,198.47,177.44Z"/><path class="cls-9" d="M66.9,187.77,47.4,173s8.43-24.75,5.1-27.82L22.59,182,52,206.16Z"/><g class="cls-10"><path d="M66.9,187.77,47.4,173s8.43-24.75,5.1-27.82L22.59,182,52,206.16Z"/></g><path class="cls-2" d="M39.76,185.7a1.93,1.93,0,0,1-2.56-.36,1.85,1.85,0,0,1,.33-2.53,2,2,0,0,1,2.71.39,1.93,1.93,0,0,1-.64,2.6"/><g class="cls-11"><path class="cls-12" d="M22.59,182l3.06,2.32,27.54-36.1s.62-2.22-.68-3Z"/></g><path class="cls-7" d="M48.09,172.59c-.19-.14-1,.69-2.3,1.1s-2.43.27-2.49.49,1.19.8,2.75.28S48.28,172.69,48.09,172.59Z"/><path class="cls-7" d="M49.63,167.44c-.14-.18-1.08.35-2.33.34s-2.2-.48-2.34-.3.78,1.11,2.34,1.11S49.8,167.59,49.63,167.44Z"/><path class="cls-7" d="M46.8,161.5c-.17.13.52,1.11,1.88,1.45s2.43-.18,2.34-.38-1-.1-2.14-.4S47,161.34,46.8,161.5Z"/><path class="cls-7" d="M52.15,176.45c-.22-.06-.64,1-1.54,1.92s-1.86,1.49-1.78,1.71,1.34,0,2.38-1.16S52.4,176.47,52.15,176.45Z"/><path class="cls-9" d="M76.47,173.49l-17.53-17s11.46-23.54,8.46-27l-34.19,32.8L59.4,189.91Z"/><path class="cls-2" d="M49.79,168.1a1.93,1.93,0,0,1-2.5-.67,1.87,1.87,0,0,1,.64-2.48,2,2,0,0,1,2.64.73,1.94,1.94,0,0,1-1,2.5"/><g class="cls-11"><path class="cls-12" d="M33.21,162.29,36,165l31.77-32.45s.89-2.12-.31-3Z"/></g><path class="cls-7" d="M59.66,156.12c-.16-.16-1.07.56-2.41.81s-2.44,0-2.53.19,1.08.94,2.69.6S59.85,156.24,59.66,156.12Z"/><path class="cls-7" d="M61.83,151.2c-.12-.2-1.11.21-2.36,0s-2.12-.76-2.28-.59.64,1.21,2.19,1.39S62,151.36,61.83,151.2Z"/><path class="cls-7" d="M59.75,145c-.19.11.38,1.17,1.69,1.67s2.43.12,2.37-.09-1-.23-2.08-.66S59.93,144.81,59.75,145Z"/><path class="cls-7" d="M63.23,160.44c-.22-.08-.76.88-1.77,1.72s-2,1.25-2,1.48,1.33.14,2.5-.87S63.4,160.49,63.23,160.44Z"/><path class="cls-7" d="M68.82,164.86s52.6,41.55,62.47,42.78l11.2,1.82L165,219.15l69.49,36.59L256.28,271l11.19,21.14.95,12.7s-50.27,6.12-57.67,1.6-70.83-51.89-74.12-55.59S73.53,222,49.69,181Z"/><path class="cls-7" d="M41.72,204.69s38.15,35.43,64.88,45.71a326.77,326.77,0,0,1,48.1,23.43l44.83,24.41,57.59-26-11.37-20.39-93.51-22-95-48.13S42.13,197.29,41.72,204.69Z"/><path class="cls-7" d="M231.3,283a23.84,23.84,0,0,1,22.26-12"/><path class="cls-7" d="M236.4,262.25a13.15,13.15,0,0,1-4.17,14.08"/><path class="cls-8" d="M203.33,238.79a6,6,0,0,1,1.07.46c.67.33,1.63.82,2.81,1.45,2.36,1.25,5.57,3.06,9,5.19s6.55,4.17,8.73,5.71c1.09.76,2,1.39,2.56,1.85a4.93,4.93,0,0,1,.9.74,5,5,0,0,1-1-.58l-2.65-1.71c-2.24-1.45-5.33-3.44-8.8-5.57s-6.64-4-9-5.31l-2.73-1.59A4.27,4.27,0,0,1,203.33,238.79Z"/><path class="cls-8" d="M213.4,305.24,213,305l-1.29-.88-5-3.43L188.5,288l-26.9-18.85L145.72,258l-8.39-5.9q-4.23-3-8.76-5.88c-6-3.76-12.13-7.19-17.78-10.85s-11-7.31-16.09-10.87-9.85-6.95-14.25-10.25a139.51,139.51,0,0,1-11.76-9.81A108.48,108.48,0,0,1,54.1,187.77c-.76-1.06-1.41-2-2-2.87s-1-1.55-1.38-2.13-.63-1-.83-1.33-.27-.47-.27-.47.12.15.31.44l.87,1.3c.38.58.85,1.28,1.43,2.11s1.23,1.78,2,2.83a112.21,112.21,0,0,0,14.67,16.5,143.82,143.82,0,0,0,11.76,9.73c4.41,3.28,9.23,6.64,14.28,10.21s10.41,7.21,16.08,10.83,11.72,7.07,17.78,10.84c3,1.89,6,3.87,8.79,5.9l8.39,5.9,15.86,11.17,26.83,18.95,18.07,12.81,4.9,3.5,1.26.92A5.39,5.39,0,0,1,213.4,305.24Z"/><path class="cls-9" d="M314.6,186.7s-18.31,9.89-21.73,14c-3.18,3.84-38.62,39.3-38.62,39.3s-22.93,6.82-22,8.73c1.63,3.49,8.06,9.76,11.5,13a32,32,0,0,1,4.12,4.65c2.9,4,8.57,11.83,13.25,18.36a43.66,43.66,0,0,1,7.28,20.06l16.17-8.89c8.25-3.33,12.75-12.35,21.82-17l27.24-29.32,8.3-17,2.76-41.71-3.93.28-15.23,2S312.34,191.77,314.6,186.7Z"/><path class="cls-9" d="M329.26,197.67l12.53-5.54a110.12,110.12,0,0,1,10-8.56s-15.63,19.47-1.91,26,24.82-10.68,24.82-10.68a86.24,86.24,0,0,0-4.36,7.57c-1.6,3.32-9.74,13.91-9.74,13.91a19.06,19.06,0,0,1-4.92,10.6c-4.68,5.35-9.94,14.21-14.12,16.48S328,253.88,328,253.88a118.78,118.78,0,0,1-1.71-30.7C327.7,207.14,329.26,197.67,329.26,197.67Z"/><path class="cls-7" d="M348.71,213.36a5.31,5.31,0,0,1-1.06-.77,21,21,0,0,1-2.58-2.5,10.17,10.17,0,0,1-2.34-4.79,16.72,16.72,0,0,1,.39-6.53A33.51,33.51,0,0,1,348,188c.83-1.26,1.56-2.24,2.08-2.91a6.31,6.31,0,0,1,.86-1,5.73,5.73,0,0,1-.69,1.11c-.47.7-1.15,1.71-1.94,3a35.93,35.93,0,0,0-4.65,10.66,16.63,16.63,0,0,0-.43,6.32,10.11,10.11,0,0,0,2.16,4.65C347.27,212.15,348.79,213.28,348.71,213.36Z"/><path class="cls-7" d="M346.84,228.51a2.65,2.65,0,0,1-.48.23c-.32.13-.8.33-1.43.56a18.2,18.2,0,0,1-5.56,1.06,8.26,8.26,0,0,1-3.84-.88,7.18,7.18,0,0,1-3.13-3.29c-1.42-2.93-1.58-6.55-1.28-10.16A40.25,40.25,0,0,1,333.23,206a35.91,35.91,0,0,1,4-7.39c1.35-2,2.54-3.49,3.37-4.53.4-.47.72-.86,1-1.18s.35-.4.37-.39a2.66,2.66,0,0,1-.29.45l-.89,1.25c-.79,1.07-1.93,2.62-3.23,4.6a36.46,36.46,0,0,0-3.82,7.36,41.66,41.66,0,0,0-2.05,9.93c-.29,3.57-.13,7.12,1.2,9.91a6.75,6.75,0,0,0,2.88,3.12,8.13,8.13,0,0,0,3.65.89,19.69,19.69,0,0,0,5.49-.88l1.45-.47A2.62,2.62,0,0,1,346.84,228.51Z"/><path class="cls-7" d="M341.77,191.64a25.51,25.51,0,0,1-2.21,1.8,41.91,41.91,0,0,0-9,10.18A24.9,24.9,0,0,1,329,206a11.32,11.32,0,0,1,1.21-2.59,32.58,32.58,0,0,1,4-5.62,33.17,33.17,0,0,1,5.1-4.66A11.62,11.62,0,0,1,341.77,191.64Z"/><g class="cls-10"><path d="M342.57,191.64h0A45.63,45.63,0,0,0,329,222c0,1,.27,2.33,1.27,2.35a1.34,1.34,0,0,0,1.22-1.15,6.82,6.82,0,0,0-.15-1.8c-.38-4.81.67-10.49,2.34-15.58S339.4,195.93,342.57,191.64Z"/></g><g class="cls-10"><path d="M349.66,185.29c-3.41,3.81-6.6,7.93-8.32,12.74s-1.8,10.4.81,14.79c.72,1.21,2.17,2.43,3.39,1.72a2.19,2.19,0,0,0,.7-2.59,11,11,0,0,0-1.54-2.46c-2.37-3.45-2.45-8.06-1.21-12.06s3.63-7.51,6-11"/></g><g class="cls-10"><path d="M242,260.05a53.36,53.36,0,0,0,19.14,7.48c5.76.9,11.63-.11,17.39-1,15-2.42,30.29-4.61,45.39-6.44H242"/></g><path class="cls-7" d="M296.46,304.8a2.69,2.69,0,0,1,.88-.25,9.3,9.3,0,0,1,2.47-.09,12.29,12.29,0,0,1,7.31,3.46,13.07,13.07,0,0,1,2.7,3.61,8.94,8.94,0,0,1,.91,3.58,9.34,9.34,0,0,1-.25,2.47,2.8,2.8,0,0,1-.31.85,19.19,19.19,0,0,0,.2-3.3,8.75,8.75,0,0,0-1-3.38,13.26,13.26,0,0,0-2.63-3.46,12.7,12.7,0,0,0-7-3.47A20,20,0,0,0,296.46,304.8Z"/><rect class="cls-8" x="194.62" y="304.8" width="115.82" height="22.41" rx="10.33"/><rect class="cls-8" x="262.8" y="258.31" width="139.28" height="17.79" rx="8.2" transform="translate(-73.93 396.73) rotate(-56.47)"/><path class="cls-7" d="M242.26,281.59c.2,0,7,6.65,8.6,11.15s3.69,15.49,4.65,19.67c1.33,5.73,3.45,11.25,11.28,11.61l29.65.12a5.35,5.35,0,0,0,4.52-2.45l26-40.1H318.8l-22.65,33.74H270.47a5.8,5.8,0,0,1-4.63-2.2,4.17,4.17,0,0,1-.78-1.56c-.58-2.32-2.61-14.34-5.07-19.56a97.47,97.47,0,0,0-5.94-10.42Z"/><path class="cls-8" d="M269.29,319.74a1.83,1.83,0,1,1-1.84-1.82h0a1.82,1.82,0,0,1,1.82,1.82Z"/><path class="cls-8" d="M298,319.74a1.83,1.83,0,1,1-1.84-1.82h0A1.84,1.84,0,0,1,298,319.74Z"/><rect class="cls-7" x="233.01" y="276.11" width="101.74" height="5.51" rx="2.54"/><path class="cls-8" d="M275.28,276.11h-1l-2.9.06-10.84.13c-4.63,0-10.2.09-16.49.07h-4.86c-1.64,0-3.44-.33-4.87.52a1.85,1.85,0,0,0-.9,2,2.48,2.48,0,0,0,1.59,1.75,12.38,12.38,0,0,0,5.33.71H260l50.71.08,15.37.08,4.18.05h0l-4.18.05-15.37.08-50.71.08H240.4a12.57,12.57,0,0,1-5.57-.76,2.92,2.92,0,0,1-1.86-2.1c0-.24-.06-.47-.05-.73a2.6,2.6,0,0,1,.2-.71,2.55,2.55,0,0,1,1-1.06,5.35,5.35,0,0,1,2.6-.64c.88,0,1.7.06,2.53.07l4.85.07H275Z"/><path class="cls-8" d="M254.25,306.59a4.77,4.77,0,0,1-.34-1c-.21-.79-.46-1.76-.75-2.9a87.05,87.05,0,0,0-2.76-9.48,35,35,0,0,0-2.3-4.88,28.17,28.17,0,0,0-2.57-3.58c-1.65-1.91-2.87-2.9-2.8-3a5.26,5.26,0,0,1,.89.66,18.62,18.62,0,0,1,2.18,2.08,24.14,24.14,0,0,1,2.71,3.57,31.29,31.29,0,0,1,2.38,4.95,67.42,67.42,0,0,1,2.63,9.57c.26,1.24.46,2.25.59,3A4.63,4.63,0,0,1,254.25,306.59Z"/><rect class="cls-7" x="251.27" y="327.21" width="6.45" height="81.29"/><polygon class="cls-7" points="256.41 395.47 323.44 408.66 323.44 415.66 256.41 405.57 256.41 395.47"/><circle class="cls-7" cx="317.5" cy="420.71" r="5.94"/><polygon class="cls-7" points="254.68 395.47 200.45 408.71 200.45 415.71 254.68 404.93 254.68 395.47"/><circle class="cls-7" cx="206.39" cy="420.71" r="5.94"/><circle class="cls-7" cx="254.51" cy="420.71" r="5.94"/><polygon class="cls-7" points="261.27 414.77 247.82 414.77 247.95 363.92 261.41 363.92 261.27 414.77"/><path class="cls-8" d="M260.91,364a38.72,38.72,0,0,1-6.37.26,38.64,38.64,0,0,1-6.36-.26,39.77,39.77,0,0,1,6.36-.26A39.85,39.85,0,0,1,260.91,364Z"/><path class="cls-8" d="M260.49,406.16a38.72,38.72,0,0,1-6.37.26,38.72,38.72,0,0,1-6.37-.26,39.85,39.85,0,0,1,6.37-.26A39.85,39.85,0,0,1,260.49,406.16Z"/></g><g id="freepik--Table--inject-8"><rect class="cls-8" x="28.45" y="246.12" width="318.56" height="13.93"/><path class="cls-7" d="M95.93,246.32s0,.06-.1.15-.18.24-.33.42a6.4,6.4,0,0,1-1.6,1.28,9.06,9.06,0,0,1-3.08,1,22,22,0,0,1-4.29.18,40.91,40.91,0,0,1-5.17-.59,46.62,46.62,0,0,0-5.89-.7,36.6,36.6,0,0,0-13.24,2.57c-4.55,1.66-8.83,3.51-12.83,4.63a35.56,35.56,0,0,1-5.86,1.17,25.2,25.2,0,0,1-5.21,0,17.53,17.53,0,0,1-7.14-2.29A10.79,10.79,0,0,1,29,252.49s.06,0,.16.1l.42.31A14.71,14.71,0,0,0,31.27,254a17.87,17.87,0,0,0,7.09,2.14,24.63,24.63,0,0,0,5.15,0,35.93,35.93,0,0,0,5.8-1.18c4-1.14,8.25-3,12.82-4.62a36.3,36.3,0,0,1,13.39-2.56,45.17,45.17,0,0,1,5.92.74,42.29,42.29,0,0,0,5.13.64,22.28,22.28,0,0,0,4.24-.13,9.07,9.07,0,0,0,3-.95A8,8,0,0,0,95.93,246.32Z"/><path class="cls-7" d="M61.08,246.53a6.12,6.12,0,0,1-1,.83,21.18,21.18,0,0,1-2.91,1.87,25.28,25.28,0,0,1-11,2.93,23.65,23.65,0,0,1-11.1-2.29,6.87,6.87,0,0,1-2.68-2.19,3.74,3.74,0,0,1-.44-.84c-.07-.2-.1-.31-.08-.32a8.9,8.9,0,0,0,.64,1.07,7.16,7.16,0,0,0,2.68,2,24.51,24.51,0,0,0,11,2.15A25.56,25.56,0,0,0,60,247.23,9.24,9.24,0,0,1,61.08,246.53Z"/><path class="cls-7" d="M135.83,255.36a4.24,4.24,0,0,1,.5.18,8.76,8.76,0,0,0,7-.48v.18a13.35,13.35,0,0,0-6.93-2.65,13.52,13.52,0,0,0-9,2.34,1.44,1.44,0,0,0-.7.9,1,1,0,0,0,.6.9,4.27,4.27,0,0,0,1.24.44l1.35.3c1.83.41,3.71.81,5.66,1.1a34.39,34.39,0,0,0,6,.41,22.77,22.77,0,0,0,3.09-.3c.51-.09,1-.19,1.54-.32a7.75,7.75,0,0,0,1.48-.48,4.88,4.88,0,0,0,1.93-1.4,2.16,2.16,0,0,0,.37-2.14,3.64,3.64,0,0,0-1.51-1.69,11.73,11.73,0,0,0-2.12-1,28.75,28.75,0,0,0-8.84-1.84,36.79,36.79,0,0,0-15.09,2.26,37.45,37.45,0,0,0-9.09,5c-1,.75-1.72,1.34-2.2,1.78l-.56.48c-.12.11-.19.16-.2.15l.18-.18.53-.51c.46-.45,1.2-1.07,2.16-1.84a36.8,36.8,0,0,1,24.31-7.55,29.16,29.16,0,0,1,9,1.84,12.59,12.59,0,0,1,2.18,1.07,4,4,0,0,1,1.67,1.88,2.56,2.56,0,0,1-.43,2.51,5.22,5.22,0,0,1-2.08,1.52,7.78,7.78,0,0,1-1.55.5,14.49,14.49,0,0,1-1.57.33,23.66,23.66,0,0,1-3.14.3,33.43,33.43,0,0,1-6.08-.43c-2-.29-3.85-.7-5.68-1.11l-1.35-.31a4.57,4.57,0,0,1-1.34-.48,1.76,1.76,0,0,1-.56-.49,1.11,1.11,0,0,1-.2-.75,1.76,1.76,0,0,1,.84-1.15,13.66,13.66,0,0,1,9.22-2.34,13.43,13.43,0,0,1,7,2.81l.13.1-.15.08a8.63,8.63,0,0,1-5.69.79A6.36,6.36,0,0,1,135.83,255.36Z"/><path class="cls-7" d="M176.82,246.68a2.07,2.07,0,0,1,.32.71,5.29,5.29,0,0,1,.21,2.09,10.38,10.38,0,0,1-3.1,6.08,15.87,15.87,0,0,1-2.9,2.46,13.41,13.41,0,0,1-2.8,1.36,12.45,12.45,0,0,1-2,.5,3.21,3.21,0,0,1-.76.07c0-.07,1.07-.22,2.7-.84a13.71,13.71,0,0,0,2.69-1.39,15.88,15.88,0,0,0,2.81-2.43,10.49,10.49,0,0,0,3.11-5.84A7.22,7.22,0,0,0,176.82,246.68Z"/><path class="cls-7" d="M234,259.31a10.82,10.82,0,0,0-6.46-3.66,11.22,11.22,0,0,0-3.79.1,15.79,15.79,0,0,1-4.44.41,8.85,8.85,0,0,1-4.43-2.17,15,15,0,0,0-4.45-2.63,16.34,16.34,0,0,0-9.88-.16,23.62,23.62,0,0,0-7.3,3.7,40.7,40.7,0,0,0-4.24,3.62L188,259.59a3.33,3.33,0,0,1-.39.36,3.39,3.39,0,0,1,.33-.42l1-1.12a35.24,35.24,0,0,1,4.18-3.73,23.34,23.34,0,0,1,7.37-3.83,16.54,16.54,0,0,1,10.11.14,15.31,15.31,0,0,1,4.55,2.7,8.57,8.57,0,0,0,4.24,2.11,15.91,15.91,0,0,0,4.35-.37,11.55,11.55,0,0,1,3.89-.06,10.22,10.22,0,0,1,5,2.41A7.16,7.16,0,0,1,234,259.31Z"/><path class="cls-7" d="M285.1,246.25a3.27,3.27,0,0,1-.35.48c-.24.29-.57.76-1.08,1.29a29.43,29.43,0,0,1-4.65,4.13,37,37,0,0,1-8.07,4.47,31.88,31.88,0,0,1-5.21,1.66,26.6,26.6,0,0,1-5.82.75,28.7,28.7,0,0,1-11-2.29,36.84,36.84,0,0,1-8-4.56,31.35,31.35,0,0,1-4.61-4.16,15,15,0,0,1-1.09-1.3,2.73,2.73,0,0,1-.35-.47,4.07,4.07,0,0,1,.41.42c.26.28.61.73,1.14,1.24a33.34,33.34,0,0,0,4.67,4.05,36.6,36.6,0,0,0,8,4.44,28.75,28.75,0,0,0,10.9,2.24,27.1,27.1,0,0,0,5.74-.73,33.09,33.09,0,0,0,5.15-1.62,38.07,38.07,0,0,0,8-4.36,32.06,32.06,0,0,0,4.7-4c.53-.51.88-1,1.14-1.24A3.16,3.16,0,0,1,285.1,246.25Z"/><path class="cls-7" d="M277.81,246.12a1.93,1.93,0,0,1-.28.22c-.18.13-.45.33-.82.56a32.22,32.22,0,0,1-3.19,1.8,33.44,33.44,0,0,1-5,2.05,22,22,0,0,1-6.58,1.13,27.17,27.17,0,0,1-11.68-3A25.65,25.65,0,0,1,247.1,247c-.36-.24-.62-.45-.81-.59s-.27-.22-.26-.23a12.06,12.06,0,0,1,1.15.69,31.87,31.87,0,0,0,3.2,1.74,28.11,28.11,0,0,0,11.56,2.81,22.9,22.9,0,0,0,6.47-1.08,36,36,0,0,0,5-2c1.39-.66,2.48-1.25,3.23-1.69A10.37,10.37,0,0,1,277.81,246.12Z"/><path class="cls-7" d="M333.52,247.59a2.29,2.29,0,0,1-.64,0l-1.79-.07-1.3-.06h-5.3l-2.19.07-2.35.16c-1.64.08-3.35.31-5.17.48-3.6.46-7.5,1.1-11.47,2a108.78,108.78,0,0,0-10.75,3.07c-1.54.58-3.06,1.09-4.36,1.67l-1.93.8-1.7.8c-1.11.49-2,1-2.84,1.43l-1.15.6-.9.54-1.27.75a2.16,2.16,0,0,1-.48.24,3.48,3.48,0,0,1,.37-.3l1.19-.79.86-.57,1.12-.63a30.29,30.29,0,0,1,2.79-1.48l1.69-.83,1.92-.83c1.3-.59,2.82-1.12,4.37-1.71a107,107,0,0,1,10.82-3.13c4-.9,8-1.53,11.6-2,1.84-.17,3.57-.38,5.22-.45l2.38-.14,2.21-.05h5.34l1.3.09,1.79.14A4.48,4.48,0,0,1,333.52,247.59Z"/><path class="cls-7" d="M239.75,259A14.5,14.5,0,0,0,238,257a16.26,16.26,0,0,0-6.42-3.59,34.32,34.32,0,0,0-5-1.1c-1.83-.29-3.79-.52-5.86-.88a49.1,49.1,0,0,1-6.32-1.59,42.67,42.67,0,0,0-6.78-1.64A28.15,28.15,0,0,0,194.4,250a48,48,0,0,0-5.38,2.41c-1.65.85-3.16,1.68-4.53,2.45-2.74,1.55-4.92,2.88-6.43,3.79l-1.73,1.06-.45.28-.16.08.14-.12.43-.3c.38-.27,1-.65,1.69-1.13,1.48-1,3.65-2.31,6.37-3.9,1.37-.79,2.88-1.64,4.52-2.5a48.61,48.61,0,0,1,5.4-2.46,28.4,28.4,0,0,1,13.4-1.88,41.34,41.34,0,0,1,6.84,1.66,50.88,50.88,0,0,0,6.32,1.61c2,.36,4,.6,5.84.91a34.51,34.51,0,0,1,5,1.16,16,16,0,0,1,6.45,3.74A8,8,0,0,1,239.75,259Z"/><path class="cls-7" d="M168,246.32a3.32,3.32,0,0,1,0,.89,9.93,9.93,0,0,1-.62,2.35,13.5,13.5,0,0,1-4.89,6.27,32.93,32.93,0,0,1-7.26,3.34c-1,.32-1.77.55-2.32.7a4.2,4.2,0,0,1-.87.18,4,4,0,0,1,.83-.33l2.27-.81a37,37,0,0,0,7.13-3.41,14,14,0,0,0,4.85-6A18.26,18.26,0,0,0,168,246.32Z"/><path class="cls-7" d="M94.05,260.05a6.07,6.07,0,0,1,.77-.75c.52-.46,1.29-1.1,2.27-1.85a64.33,64.33,0,0,1,8.13-5.24c3.31-1.82,6.4-3.27,8.64-4.31,1.13-.51,2-.92,2.68-1.19a6.09,6.09,0,0,1,1-.39,4.83,4.83,0,0,1-.94.53L114,248.16c-2.21,1.09-5.28,2.58-8.57,4.39a79,79,0,0,0-8.15,5.12c-1,.72-1.8,1.32-2.34,1.75A5.35,5.35,0,0,1,94.05,260.05Z"/><path class="cls-7" d="M109.06,246.89c0,.05-.74-.09-2.06,0a14.55,14.55,0,0,0-5.31,1.61,49.36,49.36,0,0,0-6.91,4.64,36.32,36.32,0,0,1-4.15,2.69,22.93,22.93,0,0,1-5,1.91A45.78,45.78,0,0,1,75.46,259c-3.15.09-6,0-8.35.12a42,42,0,0,0-5.59.55c-.65.12-1.15.22-1.49.3a3.1,3.1,0,0,1-.53.1,2.21,2.21,0,0,1,.51-.18c.33-.1.83-.22,1.49-.37a36.43,36.43,0,0,1,5.6-.67c2.38-.14,5.21-.1,8.35-.21a47,47,0,0,0,10.09-1.24,23,23,0,0,0,4.89-1.88,34.36,34.36,0,0,0,4.12-2.65,47.61,47.61,0,0,1,7-4.58,13.88,13.88,0,0,1,5.42-1.52,7.92,7.92,0,0,1,1.54,0Z"/><polygon class="cls-8" points="57.76 427 53.23 427 50.65 258.97 60.33 258.97 57.76 427"/><polygon class="cls-7" points="349.6 426.65 345.08 426.65 347.34 259.45 357.02 259.45 349.6 426.65"/><rect class="cls-7" x="331.82" y="246.11" width="40.39" height="13.93"/></g><g id="freepik--Plants--inject-8"><g id="freepik--plants--inject-8-2" data-name="freepik--plants--inject-8"><polygon class="cls-9" points="81.12 222.23 84.78 246.28 106.04 246.28 110.97 222.58 81.12 222.23"/><path class="cls-4" d="M108,237.64c0,.07-5.45.13-12.17.13s-12.16-.06-12.16-.13,5.44-.12,12.16-.12S108,237.59,108,237.64Z"/><path class="cls-4" d="M108.08,236.46c0,.07-5.48.13-12.25.13s-12.25-.06-12.25-.13,5.49-.12,12.25-.12S108.08,236.39,108.08,236.46Z"/><path class="cls-4" d="M108,235.12c0,.07-5.48.13-12.25.13s-12.25-.06-12.25-.13S89,235,95.79,235,108,235.06,108,235.12Z"/><path class="cls-4" d="M87.22,244.91a19.08,19.08,0,0,1-.65-3,19.86,19.86,0,0,1-.41-3.07,18.24,18.24,0,0,1,.65,3A18.72,18.72,0,0,1,87.22,244.91Z"/><path class="cls-4" d="M88.67,244.65a24.32,24.32,0,0,1-.27-3,23.09,23.09,0,0,1-.14-3,14,14,0,0,1,.39,3A15.83,15.83,0,0,1,88.67,244.65Z"/><path class="cls-4" d="M91.3,244.65a16,16,0,0,1-.55-3,14.31,14.31,0,0,1-.16-3.07,27.38,27.38,0,0,1,.41,3A26.36,26.36,0,0,1,91.3,244.65Z"/><path class="cls-4" d="M93.15,244.78a25,25,0,0,1-.2-6.17C93.1,240.66,93.16,242.72,93.15,244.78Z"/><path class="cls-4" d="M96.4,244.65a35.73,35.73,0,0,1-.2-5.85A35.73,35.73,0,0,1,96.4,244.65Z"/><path class="cls-4" d="M98.82,244.78a36.07,36.07,0,0,1,.05-6,36.07,36.07,0,0,1-.05,6Z"/><path class="cls-4" d="M101.07,244.46a19.64,19.64,0,0,1,.18-3.16,20.8,20.8,0,0,1,.43-3.14,22.25,22.25,0,0,1-.19,3.16A20.61,20.61,0,0,1,101.07,244.46Z"/><path class="cls-4" d="M104,244.14a10.18,10.18,0,0,1,.36-2.68,9.89,9.89,0,0,1,.79-2.6c.06,0-.24,1.2-.55,2.65A23.31,23.31,0,0,1,104,244.14Z"/><path class="cls-9" d="M78.68,217.47V222a1.77,1.77,0,0,0,1.77,1.77h30.79A1.77,1.77,0,0,0,113,222v-4.5Z"/><g class="cls-13"><polygon points="81.35 223.74 81.6 225.17 110.01 227.2 110.73 223.74 81.35 223.74"/></g><path class="cls-8" d="M89.85,217.45c-4.53-2.62-7-8.72-7.13-13.71s1.9-10.21,6-13.07a13.69,13.69,0,0,1,14.88-.08A15.5,15.5,0,0,1,110.4,204a17.81,17.81,0,0,1-7.3,13.4"/><path class="cls-7" d="M97.07,217.94a5.52,5.52,0,0,1-.09-1.15c0-.81,0-1.86-.09-3.11-.06-2.63-.17-6.26-.34-10.27s-.39-7.64-.56-10.26c-.07-1.25-.14-2.3-.18-3.11a5.53,5.53,0,0,1,0-1.15A5.43,5.43,0,0,1,96,190c.09.74.2,1.79.32,3.11.24,2.62.5,6.25.68,10.26s.23,7.65.22,10.29v3.11A6.34,6.34,0,0,1,97.07,217.94Z"/><path class="cls-7" d="M84.06,202.59a3.25,3.25,0,0,1-1.61.08c-.88-.08-1.59-.23-1.58-.35a3.37,3.37,0,0,1,1.61-.08A3.63,3.63,0,0,1,84.06,202.59Z"/><path class="cls-7" d="M84.31,198.13c0,.1-.67-.07-1.39-.39s-1.27-.66-1.22-.77.67.06,1.39.38S84.4,198,84.31,198.13Z"/><path class="cls-7" d="M86.61,194.8c-.06.1-.76-.23-1.48-.84s-1.19-1.22-1.1-1.3.66.39,1.37,1S86.68,194.7,86.61,194.8Z"/><path class="cls-7" d="M88.93,191.66c-.11.05-.44-.48-.75-1.17s-.47-1.29-.36-1.34.44.48.75,1.17S89,191.59,88.93,191.66Z"/><path class="cls-7" d="M92.57,189.43a2.37,2.37,0,0,1-.71-1.28c-.24-.78-.26-1.43-.14-1.45s.32.58.55,1.33S92.68,189.39,92.57,189.43Z"/><path class="cls-7" d="M98.64,186.93c.11,0,0,.51-.15,1.06s-.44,1-.55.92,0-.51.15-1.06S98.53,186.89,98.64,186.93Z"/><path class="cls-7" d="M103.14,188.86c.08.08-.21.48-.64.88s-.86.66-.94.58.21-.49.65-.89S103.06,188.77,103.14,188.86Z"/><path class="cls-7" d="M107.11,191.42c.06.09-.29.45-.79.79s-1,.53-1,.43.29-.45.79-.79S107,191.32,107.11,191.42Z"/><path class="cls-7" d="M109.92,195.23a2.92,2.92,0,0,1-1.24.76c-.73.31-1.36.48-1.41.37s.51-.45,1.24-.76S109.87,195.13,109.92,195.23Z"/><path class="cls-7" d="M111,199.4c0,.11-.55.28-1.26.37s-1.3.06-1.32-.06.55-.28,1.26-.37S111,199.28,111,199.4Z"/><path class="cls-7" d="M111.6,204.52c0,.11-.64-.05-1.34-.35s-1.22-.64-1.17-.75.64.06,1.34.36S111.65,204.41,111.6,204.52Z"/><path class="cls-7" d="M111.1,208.92a2.68,2.68,0,0,1-1.6-.6c-.79-.52-1.26-1.14-1.18-1.22s.66.38,1.42.86S111.14,208.8,111.1,208.92Z"/><path class="cls-7" d="M108.81,212.92c-.07.09-.68-.27-1.26-.89s-.89-1.26-.8-1.32.55.43,1.11,1S108.88,212.83,108.81,212.92Z"/><path class="cls-7" d="M87.07,213.39a4.57,4.57,0,0,1-1.42,1A3.79,3.79,0,0,1,84,215a4.72,4.72,0,0,1,1.42-1C86.28,213.53,87,213.28,87.07,213.39Z"/><path class="cls-7" d="M85.09,209.77a2.82,2.82,0,0,1-1.14.75c-.67.31-1.27.47-1.32.36s.46-.44,1.14-.75S85,209.66,85.09,209.77Z"/><path class="cls-7" d="M83.63,206.59c0,.12-.62.3-1.41.41s-1.44.11-1.46,0,.61-.3,1.4-.41S83.61,206.45,83.63,206.59Z"/><path class="cls-7" d="M88.4,204.79c0,.11-.57.4-1.39.49s-1.48-.05-1.47-.16.65-.17,1.42-.26S88.4,204.68,88.4,204.79Z"/><path class="cls-7" d="M92.4,200.84c0,.11-.45.35-1.11.42s-1.18-.08-1.17-.2.52-.16,1.13-.23S92.4,200.72,92.4,200.84Z"/><path class="cls-7" d="M93.15,197.67c0,.11-.57,0-1.18-.19s-1.08-.47-1-.58.57,0,1.18.18S93.19,197.59,93.15,197.67Z"/><path class="cls-7" d="M94.61,194.46c-.08.08-.45-.16-.7-.61s-.29-.88-.18-.91.31.3.54.7S94.69,194.38,94.61,194.46Z"/><path class="cls-7" d="M92.85,207.59c0,.11-.43.32-1,.46a3.58,3.58,0,0,1-.86.13l-.08-.25h.27s0,.12-.17.21l-.08-.24a4,4,0,0,1,.82-.29C92.32,207.5,92.82,207.47,92.85,207.59Z"/><path class="cls-7" d="M93.67,213.21a3,3,0,0,1-1.3.73c-.76.29-1.41.46-1.46.35s.54-.44,1.3-.74S93.63,213.1,93.67,213.21Z"/><path class="cls-7" d="M89.18,210.71c0,.11-.35.34-.87.52s-1,.23-1,.12.35-.35.86-.52S89.14,210.59,89.18,210.71Z"/><path class="cls-7" d="M89.52,199.27c0,.11-.7,0-1.48-.23s-1.35-.65-1.3-.76.68.09,1.44.36S89.55,199.15,89.52,199.27Z"/><path class="cls-7" d="M100.4,198c.07.09-.31.46-.85.81s-1,.56-1.08.46.31-.46.85-.81S100.33,197.93,100.4,198Z"/><path class="cls-7" d="M101,203.67c0,.11-.37.29-.89.4s-1,.1-1,0,.38-.3.89-.4S101,203.59,101,203.67Z"/><path class="cls-7" d="M101.67,210c0,.1-.63-.06-1.29-.37s-1.15-.64-1.11-.74.63.05,1.29.36S101.72,209.91,101.67,210Z"/><path class="cls-7" d="M100.22,216.19c-.09.08-.47-.23-.84-.68s-.6-.88-.51-.95.47.23.84.68S100.31,216.12,100.22,216.19Z"/><path class="cls-7" d="M99.92,193.87c.07.09-.18.4-.6.61s-.82.23-.85.12.28-.3.66-.49S99.85,193.78,99.92,193.87Z"/><path class="cls-7" d="M105.25,199.59c0,.11-.46.38-1.13.47s-1.22,0-1.22-.14.53-.19,1.16-.28S105.21,199.45,105.25,199.59Z"/><path class="cls-7" d="M104.19,194.45c0,.11-.44.46-1.14.68s-1.3.22-1.31.11.52-.3,1.18-.52S104.13,194.35,104.19,194.45Z"/><path class="cls-7" d="M106.4,207.48a3.24,3.24,0,0,1-1.85,0,3.2,3.2,0,0,1-1.73-.65,5.85,5.85,0,0,1,1.81.23A5.65,5.65,0,0,1,106.4,207.48Z"/><path class="cls-7" d="M104.4,214.9c-.07.09-.69-.27-1.3-.89s-1-1.24-.89-1.31.59.41,1.19,1S104.5,214.81,104.4,214.9Z"/><path class="cls-7" d="M95.72,188.41A19.13,19.13,0,0,0,92,191.35a18.13,18.13,0,0,0-4.61,10.24,22.74,22.74,0,0,0,.28,6.27,47.12,47.12,0,0,0,1.17,5c.41,1.42.78,2.55,1,3.34a6.66,6.66,0,0,1,.36,1.23,8.12,8.12,0,0,1-.51-1.17c-.3-.78-.72-1.9-1.16-3.31a41.18,41.18,0,0,1-1.28-5,23.19,23.19,0,0,1-.31-6.39,17.81,17.81,0,0,1,4.83-10.39A13.22,13.22,0,0,1,94.56,189a6.78,6.78,0,0,1,.84-.45A1.87,1.87,0,0,1,95.72,188.41Z"/><path class="cls-7" d="M101.51,217.73a37.2,37.2,0,0,0,1.9-4.56,25.67,25.67,0,0,0,1.14-11.7,22,22,0,0,0-1.81-6.25,14.8,14.8,0,0,0-3.07-4.28,11.09,11.09,0,0,0-3-1.91c-.78-.33-1.25-.4-1.25-.44h.35a5.65,5.65,0,0,1,1,.26,10.36,10.36,0,0,1,3.15,1.83,14.59,14.59,0,0,1,3.24,4.35,22,22,0,0,1,1.87,6.35,24.67,24.67,0,0,1-1.28,11.86c-.24.73-.54,1.36-.77,1.93a13.84,13.84,0,0,1-.71,1.4A10.07,10.07,0,0,1,101.51,217.73Z"/><path class="cls-9" d="M374.06,360.47c-7.46,2.61-17.18.28-23.56-4.38s-11-11.32-15-18.09c-1.73-2.89-3.43-5.9-4-9.22s.26-7.07,2.83-9.24c4-3.37,10.15-1.66,14.7.93a50.68,50.68,0,0,1,25,40"/><path class="cls-9" d="M366.05,378.31c-4.47,5.91-12.16,8.54-19.56,8.88s-14.72-1.7-21.64-4.36c-2.51-1-5.26-2.28-6.12-4.83a6.16,6.16,0,0,1,1.31-5.7,12.91,12.91,0,0,1,5-3.4,34.16,34.16,0,0,1,21.78-1.18c7.16,1.86,13.42,6,19.23,10.59"/><path class="cls-9" d="M374.17,328.59c-6.17.13-10.84-5.28-13.64-10.78a39.93,39.93,0,0,1-3.67-24.93c.56-3.15,1.75-6.55,4.58-8.06s6.59-.53,9,1.66,3.72,5.33,4.68,8.44c3.31,10.72,2.6,23-1,33.67"/><path class="cls-9" d="M394.4,362.67c-10.52-17.91-12.27-39.81-6.06-59.63,1-3.21,2.91-6.89,6.27-7.1,3.73-.24,6.06,3.91,7.09,7.5,3.61,12.58,2.84,25.95,2,39-.49,8.05-3.25,14.93-9.34,20.22"/><path class="cls-9" d="M405.4,370A43,43,0,0,1,430.93,343c2.79-1,6.34-1.65,8.43.49s1.41,5.6.1,8.22c-2.12,4.23-5.56,7.62-9,10.88-3.12,3-6.36,6-10.3,7.67S409,372.38,405.38,370"/><path class="cls-7" d="M340.15,324l.18.16.57.44,2.21,1.65,1.6,1.18c.57.44,1.17,1,1.83,1.49,1.3,1.09,2.84,2.26,4.39,3.73l2.48,2.26c.86.79,1.68,1.67,2.58,2.56,1.81,1.74,3.56,3.77,5.45,5.87a116.38,116.38,0,0,1,19.22,31.1c1,2.63,2.07,5.11,2.82,7.51.39,1.19.82,2.33,1.14,3.45s.61,2.19.9,3.22c.63,2,1,3.95,1.38,5.6.18.82.37,1.59.52,2.3s.23,1.37.34,2c.2,1.15.37,2.05.49,2.71a3.38,3.38,0,0,0,.13.7,1.09,1.09,0,0,0,.07.24,1,1,0,0,0,0-.24,6.6,6.6,0,0,0-.1-.71c-.09-.67-.23-1.58-.39-2.73l-.3-2c-.13-.72-.31-1.49-.48-2.32-.37-1.66-.7-3.57-1.31-5.63-.28-1-.57-2.12-.88-3.24s-.73-2.28-1.11-3.48c-.73-2.41-1.76-4.9-2.78-7.54a125.94,125.94,0,0,0-8.38-16.4,122.87,122.87,0,0,0-10.93-14.83c-1.9-2.1-3.67-4.13-5.5-5.86-.9-.88-1.74-1.77-2.61-2.55l-2.51-2.24c-1.57-1.46-3.13-2.62-4.45-3.69l-1.86-1.46-1.63-1.15L341,324.59l-.6-.4Q340.17,324,340.15,324Z"/><path class="cls-7" d="M326.22,373.66a2.93,2.93,0,0,0,.72-.12c.47-.08,1.16-.26,2-.41a57.44,57.44,0,0,1,7.62-.93A55.6,55.6,0,0,1,381.68,391a59.92,59.92,0,0,1,4.71,6.06c.52.74.88,1.36,1.15,1.75a6.42,6.42,0,0,0,.42.6,3.09,3.09,0,0,0-.34-.65c-.24-.41-.57-1-1.07-1.8a52.24,52.24,0,0,0-4.6-6.19,54.69,54.69,0,0,0-45.41-18.89,50.39,50.39,0,0,0-7.64,1.09c-.89.18-1.57.39-2,.51C326.67,373.51,326.44,373.58,326.22,373.66Z"/><path class="cls-7" d="M365.07,291.91a1.31,1.31,0,0,0,0,.28c.05.21.1.47.17.81.17.73.4,1.77.69,3.08.61,2.67,1.53,6.53,2.69,11.3,2.32,9.53,5.69,22.65,9.2,37.19,1.74,7.28,3.32,14.23,4.68,20.57s2.47,12.07,3.32,16.9c.45,2.4.79,4.6,1.12,6.52s.58,3.57.78,4.93.37,2.37.49,3.12a3.74,3.74,0,0,0,.14.81.14.14,0,1,0,.06,0c0-.21-.06-.48-.09-.82-.1-.75-.23-1.8-.4-3.13s-.39-3-.7-4.95-.61-4.12-1.05-6.53c-.8-4.84-1.9-10.58-3.21-16.93s-2.91-13.31-4.65-20.59c-3.51-14.55-6.93-27.66-9.34-37.17-1.19-4.73-2.16-8.56-2.84-11.26-.33-1.3-.6-2.32-.78-3.06-.09-.32-.16-.59-.22-.79A1.31,1.31,0,0,0,365.07,291.91Z"/><path class="cls-7" d="M389.23,396.25a.79.79,0,0,0,.06-.22l.15-.64c.13-.61.3-1.44.52-2.49.44-2.17,1-5.31,1.71-9.21,1.35-7.79,3-18.61,3.93-30.64.48-6,.74-11.76.86-17s0-9.94-.12-13.89c0-2-.18-3.76-.27-5.33s-.19-2.92-.29-4-.18-1.91-.23-2.53a4.76,4.76,0,0,0-.08-.66.81.81,0,0,0,0-.22.81.81,0,0,0,0,.22v.67c0,.62.08,1.47.14,2.54s.15,2.45.21,4,.16,3.35.19,5.32c.11,4,.12,8.65,0,13.87s-.42,11-.89,17c-1,12-2.53,22.83-3.79,30.62-.63,3.9-1.16,7.06-1.55,9.23-.18,1.06-.32,1.9-.43,2.51a3.55,3.55,0,0,1-.1.66A.62.62,0,0,0,389.23,396.25Z"/><path class="cls-7" d="M388.45,398.53a3.42,3.42,0,0,0,.27-.62l.7-1.8.49-1.31c.21-.46.43-1,.68-1.51s.49-1.12.77-1.74.62-1.24,1-1.9l1-2.06,1.28-2.2c.84-1.55,1.93-3.08,3-4.75a115.4,115.4,0,0,1,7.92-10.13,122.08,122.08,0,0,1,9.1-9.1c1.51-1.27,2.89-2.55,4.29-3.62l2-1.58,1.89-1.4c1.2-.9,2.32-1.66,3.31-2.32s1.83-1.24,2.55-1.68l1.63-1a3,3,0,0,0,.55-.39,3.41,3.41,0,0,0-.6.31l-1.68.95c-.74.41-1.61,1-2.61,1.61s-2.14,1.38-3.35,2.27l-1.92,1.37-2,1.57c-1.41,1.06-2.81,2.33-4.34,3.6a121.12,121.12,0,0,0-9.16,9.11,110,110,0,0,0-7.93,10.2c-1.05,1.69-2.13,3.24-3,4.8l-1.26,2.23-1,2.11c-.32.68-.67,1.31-.93,1.93l-.74,1.76-.64,1.54c-.16.48-.32.92-.46,1.32l-.6,1.84A3.37,3.37,0,0,0,388.45,398.53Z"/><path class="cls-7" d="M344.05,344.8c0,.08,1.28.08,3.33.19a59.45,59.45,0,0,1,15.68,3,19.42,19.42,0,0,0,3.16,1,3.46,3.46,0,0,0-.82-.4c-.52-.25-1.29-.57-2.26-.94a47.54,47.54,0,0,0-15.78-3c-1,0-1.87,0-2.45.05A3.55,3.55,0,0,0,344.05,344.8Z"/><path class="cls-7" d="M336.12,383.59a24.16,24.16,0,0,1,10.52-11.33,7.58,7.58,0,0,0-2.14.94,19.3,19.3,0,0,0-4.42,3.52,18.82,18.82,0,0,0-3.18,4.67A6.89,6.89,0,0,0,336.12,383.59Z"/><path class="cls-7" d="M363.18,306.45c-.1.1,1.84,2,4,4.63s3.61,4.87,3.74,4.8a29.6,29.6,0,0,0-7.69-9.43Z"/><path class="cls-7" d="M369.53,295.47a19.07,19.07,0,0,0-.95,4.15,17.78,17.78,0,0,0-.47,4.24,19,19,0,0,0,1-4.15A17.74,17.74,0,0,0,369.53,295.47Z"/><path class="cls-7" d="M389.21,329.92a53.35,53.35,0,0,0,3.08,6.48,53.24,53.24,0,0,0,3.52,6.25,103.66,103.66,0,0,0-6.6-12.73Z"/><path class="cls-7" d="M400.93,318.22a29.06,29.06,0,0,0-2.61,4.69,29.44,29.44,0,0,0-2.17,4.91A59.24,59.24,0,0,0,400.93,318.22Z"/><path class="cls-7" d="M418.14,358.21c0,.15,2.12-.26,4.73-.44s4.73-.08,4.74-.23A19.27,19.27,0,0,0,418.14,358.21Z"/><path class="cls-7" d="M406.4,393.59l-5.86,30.8a4.32,4.32,0,0,1-4.24,3.51H379a4.31,4.31,0,0,1-4.26-3.61l-5.1-30.7Z"/><polygon class="cls-8" points="404.48 403.58 371.4 403.58 369.64 393.57 406.39 393.57 404.48 403.58"/><polygon class="cls-4" points="404.48 403.58 403.79 407.23 371.9 407.23 371.4 403.58 404.48 403.58"/></g></g><g id="freepik--Clock--inject-8"><circle class="cls-9" cx="84.02" cy="40.07" r="40.07"/><circle class="cls-4" cx="83.87" cy="39.86" r="37.83"/><path class="cls-7" d="M46.12,37.38v3.74c0,.48.09,1,.14,1.59l.14,1.88a14.1,14.1,0,0,0,.36,2.09A36,36,0,0,0,50.28,57a37.84,37.84,0,0,0,8.87,11.28l1.57,1.34c.55.41,1.13.79,1.7,1.2A14.93,14.93,0,0,0,64.18,72L66.07,73l1,.53,1,.45,2.07.91c.7.28,1.44.48,2.17.73a19.23,19.23,0,0,0,2.24.67,35.79,35.79,0,0,0,4.71.86c.8.08,1.61.21,2.44.25h3.75l1.26-.11c.84-.09,1.7-.13,2.55-.25a41.14,41.14,0,0,0,10.13-3c.82-.37,1.61-.83,2.43-1.24.4-.22.82-.4,1.21-.66l1.15-.75a41.92,41.92,0,0,0,4.5-3.34,44.22,44.22,0,0,0,4-4.1l.93-1.1.84-1.18.83-1.2a8.86,8.86,0,0,0,.79-1.23l1.44-2.56,1.2-2.71a40.36,40.36,0,0,0,2.69-11.67,40.76,40.76,0,0,0-1.16-12c-.28-1-.56-1.9-.83-2.84l-1.1-2.73a9.44,9.44,0,0,0-.62-1.33L117,22.14l-.68-1.28-.78-1.21a43.46,43.46,0,0,0-3.39-4.59,40.92,40.92,0,0,0-4-3.9l-1-.9c-.34-.3-.74-.54-1.11-.81-.75-.51-1.48-1.07-2.24-1.55a41.91,41.91,0,0,0-4.75-2.47,39.57,39.57,0,0,0-4.91-1.8c-.83-.22-1.67-.38-2.5-.57l-1.24-.28c-.41-.08-.83-.1-1.24-.16L86.7,2.33c-.82-.07-1.64,0-2.45-.07a35.82,35.82,0,0,0-4.85.33A19.82,19.82,0,0,0,77.09,3c-.76.16-1.52.26-2.25.45L72.68,4l-1.07.31-1,.41-2,.8c-.67.26-1.28.64-1.9.94a19.29,19.29,0,0,0-1.84,1l-1.71,1.1a37.78,37.78,0,0,0-10.32,10A35.9,35.9,0,0,0,48,28.33a17.82,17.82,0,0,0-.63,2c-.15.65-.29,1.26-.41,1.82s-.26,1.08-.35,1.56-.11.92-.16,1.31c-.1.77-.18,1.37-.24,1.79s-.09.6-.09.6V36.8c0-.41.1-1,.18-1.79,0-.4.09-.84.14-1.32s.21-1,.32-1.57.26-1.18.4-1.83a20,20,0,0,1,.6-2,36,36,0,0,1,4.8-9.83A37.78,37.78,0,0,1,62.89,8.2l1.72-1.12c.6-.34,1.23-.65,1.85-1s1.24-.7,1.92-1l2-.82,1-.41,1.13-.26L74.7,3c.74-.2,1.51-.31,2.27-.46a18.4,18.4,0,0,1,2.34-.38,35.45,35.45,0,0,1,4.83-.25c.82,0,1.65,0,2.48.06l2.51.29c.42,0,.84.08,1.26.16l1.26.27c.83.2,1.69.35,2.53.58a40.9,40.9,0,0,1,5,1.81A40,40,0,0,1,104,7.53c.77.48,1.51,1,2.27,1.56.37.28.78.52,1.13.82l1.06.91a42.18,42.18,0,0,1,4.08,3.94A43.27,43.27,0,0,1,116,19.41l.8,1.23.68,1.3.68,1.31a8.6,8.6,0,0,1,.63,1.34l1.11,2.77c.28,1,.57,1.91.85,2.88a40.58,40.58,0,0,1,1.17,12.12,40.39,40.39,0,0,1-2.75,11.87c-.4.92-.81,1.83-1.21,2.74s-1,1.74-1.47,2.6a8.56,8.56,0,0,1-.8,1.25L114.83,62l-.85,1.2-1,1.11a43.56,43.56,0,0,1-4,4.15,41.67,41.67,0,0,1-4.56,3.38l-1.17.76c-.39.26-.82.44-1.22.66-.83.42-1.63.88-2.47,1.26a42.25,42.25,0,0,1-10.26,3c-.86.11-1.73.16-2.58.24l-1.28.11h-3.8c-.83,0-1.65-.18-2.47-.26a34.69,34.69,0,0,1-4.76-.88,19.6,19.6,0,0,1-2.26-.68c-.74-.26-1.49-.46-2.2-.75l-2.08-.93-1-.46-1-.54L64,72.32c-.63-.34-1.19-.81-1.77-1.2s-1.16-.8-1.71-1.22l-1.56-1.33a37.58,37.58,0,0,1-8.87-11.43,35.88,35.88,0,0,1-3.47-10.38c-.11-.75-.31-1.44-.34-2.11s-.1-1.28-.14-1.86S46,41.68,46,41.19s0-.93,0-1.33a17.63,17.63,0,0,1,.05-1.8C46.05,37.83,46.08,37.61,46.12,37.38Z"/><path class="cls-7" d="M83.77,8.24A10.3,10.3,0,0,1,84,11.42a10.3,10.3,0,0,1-.25,3.18,10.61,10.61,0,0,1-.24-3.18A10.63,10.63,0,0,1,83.77,8.24Z"/><path class="cls-7" d="M101,13.35a10.68,10.68,0,0,1-2,2.39,10.91,10.91,0,0,1-2.39,2,10,10,0,0,1,2-2.39A10,10,0,0,1,101,13.35Z"/><path class="cls-7" d="M111.09,24.36a13.8,13.8,0,0,1-2.61,1.74,13.45,13.45,0,0,1-2.74,1.49,8.51,8.51,0,0,1,2.49-1.93A8.34,8.34,0,0,1,111.09,24.36Z"/><path class="cls-7" d="M117,40.7a19.61,19.61,0,0,1-4.33.24,19.61,19.61,0,0,1-4.33-.24,19,19,0,0,1,4.33-.25A19,19,0,0,1,117,40.7Z"/><path class="cls-7" d="M56.9,40.12a17,17,0,0,1-4.09.25,17,17,0,0,1-4.09-.25,17.51,17.51,0,0,1,4.09-.24A17.51,17.51,0,0,1,56.9,40.12Z"/><path class="cls-7" d="M61.15,52.28a17.18,17.18,0,0,1-3.09,2.81,17.34,17.34,0,0,1-3.4,2.42,18.24,18.24,0,0,1,3.09-2.8A18.47,18.47,0,0,1,61.15,52.28Z"/><path class="cls-7" d="M71.64,61.69a28.13,28.13,0,0,1-2.11,3.65,28,28,0,0,1-2.23,3.57,13.53,13.53,0,0,1,1.81-3.82A13.81,13.81,0,0,1,71.64,61.69Z"/><path class="cls-7" d="M83.77,73.83a19.7,19.7,0,0,1-.24-4.34,19.61,19.61,0,0,1,.24-4.33A19,19,0,0,1,84,69.49,19.12,19.12,0,0,1,83.77,73.83Z"/><path class="cls-7" d="M102.45,68.05A18.64,18.64,0,0,1,96,62.4a41.39,41.39,0,0,1,3.23,2.83A39.55,39.55,0,0,1,102.45,68.05Z"/><path class="cls-7" d="M111.22,58.59a14.91,14.91,0,0,1-2.82-2.5,15.36,15.36,0,0,1-2.53-2.87,14.66,14.66,0,0,1,2.87,2.52A15.67,15.67,0,0,1,111.22,58.59Z"/><path class="cls-7" d="M60.76,28.47a11.82,11.82,0,0,1-2.54-2.19A11.23,11.23,0,0,1,56,23.75a11.27,11.27,0,0,1,2.53,2.19A12,12,0,0,1,60.76,28.47Z"/><path class="cls-7" d="M71.57,17.07a11,11,0,0,1-2.48-2.13,11.32,11.32,0,0,1-2.15-2.48,11.13,11.13,0,0,1,2.46,2.13A11.41,11.41,0,0,1,71.57,17.07Z"/><path class="cls-7" d="M83.87,20a6.92,6.92,0,0,1,.1,1.36c0,1,0,2.21.08,3.69,0,3.12.08,7.43.08,12.19v3.09l-.37-.19c-3.68-1.86-6.92-3.53-9.23-4.74L71.82,33.9a5.54,5.54,0,0,1-1-.58,5.13,5.13,0,0,1,1,.41l2.77,1.32c2.35,1.13,5.62,2.73,9.31,4.58l-.37.23V37.19c0-4.76,0-9.07.08-12.19,0-1.48.06-2.72.08-3.69A6.26,6.26,0,0,1,83.87,20Z"/></g><g id="freepik--Device--inject-8"><path class="cls-2" d="M138.06,203l18.34,40.5a6,6,0,0,0,4.9,3.06l84.48-.11h0a3.59,3.59,0,0,0-3.48-3.16l-32.06-.7L193.8,203.19a3.38,3.38,0,0,0-3.1-2.09l-51.16-.39a1.61,1.61,0,0,0-1.63,1.57A1.69,1.69,0,0,0,138.06,203Z"/><path class="cls-7" d="M138.06,203a1.24,1.24,0,0,1-.15-.47,1.63,1.63,0,0,1,.45-1.36,1.66,1.66,0,0,1,1-.48h4.57l21.06.08,14.79.08,8.32,0h2.17a4,4,0,0,1,2.23.48,3.69,3.69,0,0,1,1.54,1.75l.87,2.09c4.71,11.27,10,23.81,15.56,37.26l-.22-.15,17.33.37,9,.2,4.58.1h1.16a3.88,3.88,0,0,1,3.11,1.77,4.06,4.06,0,0,1,.59,1.62v.29h-85a4.6,4.6,0,0,1-1.28-.24,6,6,0,0,1-3.71-3.2q-1-2.19-1.92-4.27c-5-11.13-9-20.12-11.83-26.36-1.37-3.1-2.45-5.51-3.18-7.17-.36-.81-.63-1.43-.82-1.87s-.26-.64-.26-.64l.31.62.86,1.85,3.28,7.13,12,26.29,1.94,4.26a5.57,5.57,0,0,0,3.49,3,6.87,6.87,0,0,0,2.43.23h7.87l22.93-.06,52.61-.09-.26.29a3.68,3.68,0,0,0-.5-1.4,3.31,3.31,0,0,0-1.65-1.32,3.17,3.17,0,0,0-1.05-.21h-1.15l-4.58-.11-9-.2-17.32-.38h-.17l-.06-.15-15.5-37.28-.87-2.1a3.24,3.24,0,0,0-1.35-1.55,3.67,3.67,0,0,0-2-.43h-2.17l-8.31-.07-14.79-.15L144,200.85l-3.26,0h-1.29a1.56,1.56,0,0,0-1.4,1.72A2.36,2.36,0,0,0,138.06,203Z"/><path class="cls-8" d="M208.64,246.89a1.7,1.7,0,0,1-.24-.44c-.17-.35-.37-.79-.61-1.31l-2.15-4.85c-1.78-4.11-4.21-9.8-6.82-16.12s-4.91-12.06-6.51-16.25c-.79-2.09-1.43-3.79-1.84-5-.18-.55-.33-1-.46-1.37a1.61,1.61,0,0,1-.13-.49,1.6,1.6,0,0,1,.23.45c.15.36.33.8.56,1.33l2,4.92c1.73,4.21,4.06,9.9,6.65,16.18s4.94,12,6.67,16.18c.82,2,1.49,3.68,2,4.91l.52,1.35A1.48,1.48,0,0,1,208.64,246.89Z"/><path class="cls-12" d="M175.51,222.59a2.62,2.62,0,1,1-2.62-2.62h0a2.61,2.61,0,0,1,2.61,2.61Z"/></g><g id="freepik--speech-bubble--inject-8"><path class="cls-4" d="M294.62,159.92l-6.71-11.83a31.76,31.76,0,1,0-7.6,8.44h0Z"/><path class="cls-7" d="M294.62,159.92l-14.35-3.25a.12.12,0,0,1-.1-.12s0,0,0,0a0,0,0,0,1,0-.05h0l.18.18a31.65,31.65,0,0,1-15.2,6.42,28.86,28.86,0,0,1-5,.26c-.86,0-1.74-.07-2.63-.15l-2.68-.4A32,32,0,0,1,235,150.07a31.64,31.64,0,0,1-5.36-12.26A32.31,32.31,0,0,1,230,123.7a31.17,31.17,0,0,1,6.8-13A32,32,0,0,1,249.06,102a32.43,32.43,0,0,1,14.22-2.18,31.36,31.36,0,0,1,13.06,3.8,32.16,32.16,0,0,1,15,18.53,34.25,34.25,0,0,1,1.38,10.31A31.43,31.43,0,0,1,288,148.14V148l6.61,11.89-6.82-11.77a.11.11,0,0,1,0-.13,31.46,31.46,0,0,0,4.6-15.59,34.06,34.06,0,0,0-1.4-10.18A31.84,31.84,0,0,0,276.07,104a31.09,31.09,0,0,0-12.86-3.78,31.89,31.89,0,0,0-14,2.16,31.33,31.33,0,0,0-12,8.59,30.79,30.79,0,0,0-6.69,12.83,31.77,31.77,0,0,0-.38,13.89,31.19,31.19,0,0,0,5.26,12.08,31.6,31.6,0,0,0,19.51,12.59l2.64.41c.88.07,1.75.1,2.6.15a28.84,28.84,0,0,0,5-.23,31.46,31.46,0,0,0,15.09-6.27.17.17,0,0,1,.19,0,.15.15,0,0,1,0,.16h0l-.08-.21Z"/><path class="cls-7" d="M253.71,132.79v3h-1.54V133c0-.86-.38-1.25-1-1.25s-1.17.44-1.17,1.39v2.67h-1.6V133c0-.86-.36-1.25-1-1.25s-1.16.44-1.16,1.39v2.67H244.7v-5.32h1.47v.61a2.19,2.19,0,0,1,1.67-.69,2,2,0,0,1,1.75.87,2.4,2.4,0,0,1,1.92-.87,2.06,2.06,0,0,1,2.22,1.88A1.8,1.8,0,0,1,253.71,132.79Z"/><path class="cls-7" d="M264.09,132.79v3h-1.54V133c0-.86-.39-1.25-1-1.25s-1.18.44-1.18,1.39v2.67h-1.54V133c0-.86-.37-1.25-1-1.25s-1.17.44-1.17,1.39v2.67H255.1v-5.32h1.48v.61a2.16,2.16,0,0,1,1.67-.69,2,2,0,0,1,1.75.87,2.38,2.38,0,0,1,1.91-.87,2.06,2.06,0,0,1,2.2,1.91A1.61,1.61,0,0,1,264.09,132.79Z"/><path class="cls-7" d="M274.47,132.79v3h-1.55V133c0-.86-.38-1.25-1-1.25s-1.18.44-1.18,1.39v2.67H269.2V133c0-.86-.37-1.25-1-1.25s-1.17.44-1.17,1.39v2.67h-1.54v-5.32H267v.61a2.19,2.19,0,0,1,1.67-.69,2,2,0,0,1,1.75.87,2.4,2.4,0,0,1,1.92-.87,2,2,0,0,1,2.19,1.92A1.55,1.55,0,0,1,274.47,132.79Z"/><path class="cls-7" d="M275.48,134.94a1,1,0,1,1,0,.56A1.06,1.06,0,0,1,275.48,134.94Z"/><path class="cls-7" d="M278.07,134.94a1,1,0,1,1,0,.56A1.06,1.06,0,0,1,278.07,134.94Z"/><path class="cls-7" d="M280.66,134.94a1,1,0,1,1,0,.56A1.06,1.06,0,0,1,280.66,134.94Z"/></g><g id="freepik--Floor--inject-8"><path class="cls-7" d="M451.4,427c0,.15-99.18.26-221.49.26S8.4,427.15,8.4,427s99.16-.26,221.51-.26S451.4,426.86,451.4,427Z"/></g></g></g></svg>